  0
SECTION
  2
HEADER
  9
$ACADVER
  1
AC1009
  9
$DWGCODEPAGE
  3
ansi_1252
  9
$INSBASE
 10
0.0
 20
0.0
 30
0.0
  9
$EXTMIN
 10
10.68799999999998
 20
3.687999999999942
 30
0.0
  9
$EXTMAX
 10
19.31199999999994
 20
12.31199999999995
 30
0.0
  9
$LIMMIN
 10
0.0
 20
0.0
  9
$LIMMAX
 10
12.0
 20
9.0
  9
$ORTHOMODE
 70
     0
  9
$REGENMODE
 70
     1
  9
$FILLMODE
 70
     1
  9
$QTEXTMODE
 70
     0
  9
$MIRRTEXT
 70
     1
  9
$DRAGMODE
 70
     2
  9
$LTSCALE
 40
0.0393700787401575
  9
$OSMODE
 70
    37
  9
$ATTMODE
 70
     1
  9
$TEXTSIZE
 40
0.2
  9
$TRACEWID
 40
0.05
  9
$TEXTSTYLE
  7
STANDARD
  9
$CLAYER
  8
DEFAULT
  9
$CELTYPE
  6
BYLAYER
  9
$CECOLOR
 62
   256
  9
$DIMSCALE
 40
1.0
  9
$DIMASZ
 40
0.18
  9
$DIMEXO
 40
0.0625
  9
$DIMDLI
 40
0.38
  9
$DIMRND
 40
0.0
  9
$DIMDLE
 40
0.0
  9
$DIMEXE
 40
0.18
  9
$DIMTP
 40
0.0
  9
$DIMTM
 40
0.0
  9
$DIMTXT
 40
0.18
  9
$DIMCEN
 40
0.09
  9
$DIMTSZ
 40
0.0
  9
$DIMTOL
 70
     0
  9
$DIMLIM
 70
     0
  9
$DIMTIH
 70
     1
  9
$DIMTOH
 70
     1
  9
$DIMSE1
 70
     0
  9
$DIMSE2
 70
     0
  9
$DIMTAD
 70
     0
  9
$DIMZIN
 70
     0
  9
$DIMBLK
  1

  9
$DIMASO
 70
     1
  9
$DIMSHO
 70
     1
  9
$DIMPOST
  1

  9
$DIMAPOST
  1

  9
$DIMALT
 70
     0
  9
$DIMALTD
 70
     2
  9
$DIMALTF
 40
25.4
  9
$DIMLFAC
 40
1.0
  9
$DIMTOFL
 70
     0
  9
$DIMTVP
 40
0.0
  9
$DIMTIX
 70
     0
  9
$DIMSOXD
 70
     0
  9
$DIMSAH
 70
     0
  9
$DIMBLK1
  1

  9
$DIMBLK2
  1

  9
$DIMSTYLE
  2
STANDARD
  9
$DIMCLRD
 70
     0
  9
$DIMCLRE
 70
     0
  9
$DIMCLRT
 70
     0
  9
$DIMTFAC
 40
1.0
  9
$DIMGAP
 40
0.09
  9
$LUNITS
 70
     2
  9
$LUPREC
 70
     3
  9
$SKETCHINC
 40
0.1
  9
$FILLETRAD
 40
0.5
  9
$AUNITS
 70
     0
  9
$AUPREC
 70
     0
  9
$MENU
  1
.
  9
$ELEVATION
 40
0.0
  9
$PELEVATION
 40
0.0
  9
$THICKNESS
 40
0.0
  9
$LIMCHECK
 70
     0
  9
$CHAMFERA
 40
0.0
  9
$CHAMFERB
 40
0.0
  9
$SKPOLY
 70
     0
  9
$TDCREATE
 40
2457463.794744271
  9
$TDUPDATE
 40
2457463.794744271
  9
$TDINDWG
 40
0.0000000116
  9
$TDUSRTIMER
 40
0.0000000116
  9
$USRTIMER
 70
     1
  9
$ANGBASE
 50
0.0
  9
$ANGDIR
 70
     0
  9
$PDMODE
 70
     0
  9
$PDSIZE
 40
0.0
  9
$PLINEWID
 40
0.0
  9
$COORDS
 70
     1
  9
$SPLFRAME
 70
     0
  9
$SPLINETYPE
 70
     6
  9
$SPLINESEGS
 70
     8
  9
$ATTDIA
 70
     0
  9
$ATTREQ
 70
     1
  9
$HANDLING
 70
     1
  9
$HANDSEED
  5
B0
  9
$SURFTAB1
 70
     6
  9
$SURFTAB2
 70
     6
  9
$SURFTYPE
 70
     6
  9
$SURFU
 70
     6
  9
$SURFV
 70
     6
  9
$UCSNAME
  2

  9
$UCSORG
 10
0.0
 20
0.0
 30
0.0
  9
$UCSXDIR
 10
1.0
 20
0.0
 30
0.0
  9
$UCSYDIR
 10
0.0
 20
1.0
 30
0.0
  9
$PUCSNAME
  2

  9
$PUCSORG
 10
0.0
 20
0.0
 30
0.0
  9
$PUCSXDIR
 10
1.0
 20
0.0
 30
0.0
  9
$PUCSYDIR
 10
0.0
 20
1.0
 30
0.0
  9
$USERI1
 70
     0
  9
$USERI2
 70
     0
  9
$USERI3
 70
     0
  9
$USERI4
 70
     0
  9
$USERI5
 70
     0
  9
$USERR1
 40
0.0
  9
$USERR2
 40
0.0
  9
$USERR3
 40
0.0
  9
$USERR4
 40
0.0
  9
$USERR5
 40
0.0
  9
$WORLDVIEW
 70
     1
  9
$SHADEDGE
 70
     3
  9
$SHADEDIF
 70
    70
  9
$TILEMODE
 70
     1
  9
$MAXACTVP
 70
    64
  9
$PLIMCHECK
 70
     0
  9
$PEXTMIN
 10
1.000000000000000E+20
 20
1.000000000000000E+20
 30
1.000000000000000E+20
  9
$PEXTMAX
 10
-1.000000000000000E+20
 20
-1.000000000000000E+20
 30
-1.000000000000000E+20
  9
$PLIMMIN
 10
0.0
 20
0.0
  9
$PLIMMAX
 10
12.0
 20
9.0
  9
$UNITMODE
 70
     0
  9
$VISRETAIN
 70
     1
  9
$PLINEGEN
 70
     0
  9
$PSLTSCALE
 70
     1
  0
ENDSEC
  0
SECTION
  2
TABLES
  0
TABLE
  2
VPORT
 70
     1
  0
VPORT
  2
*ACTIVE
 70
     0
 10
0.0
 20
0.0
 11
1.0
 21
1.0
 12
14.99999999999996
 22
7.999999999999949
 13
0.0
 23
0.0
 14
0.5
 24
0.5
 15
0.5
 25
0.5
 16
0.0
 26
0.0
 36
1.0
 17
0.0
 27
0.0
 37
0.0
 40
8.796480000000013
 41
0.9999999999999948
 42
50.0
 43
0.0
 44
0.0
 50
0.0
 51
0.0
 71
     0
 72
   100
 73
     1
 74
     3
 75
     0
 76
     0
 77
     0
 78
     0
  0
ENDTAB
  0
TABLE
  2
LTYPE
 70
     1
  0
LTYPE
  2
CONTINUOUS
 70
     0
  3
Solid line
 72
    65
 73
     0
 40
0.0
  0
ENDTAB
  0
TABLE
  2
LAYER
 70
     2
  0
LAYER
  2
0
 70
     0
 62
     7
  6
CONTINUOUS
  0
LAYER
  2
DEFAULT
 70
     0
 62
     7
  6
CONTINUOUS
  0
ENDTAB
  0
TABLE
  2
STYLE
 70
     1
  0
STYLE
  2
STANDARD
 70
     0
 40
0.0
 41
1.0
 50
0.0
 71
     0
 42
0.2
  3
txt
  4

  0
ENDTAB
  0
TABLE
  2
VIEW
 70
     0
  0
ENDTAB
  0
TABLE
  2
UCS
 70
     0
  0
ENDTAB
  0
TABLE
  2
APPID
 70
     1
  0
APPID
  2
ACAD
 70
     0
  0
ENDTAB
  0
TABLE
  2
DIMSTYLE
 70
     1
  0
DIMSTYLE
  2
STANDARD
 70
     0
  3

  4

  5

  6

  7

 40
1.0
 41
0.18
 42
0.0625
 43
0.38
 44
0.18
 45
0.0
 46
0.0
 47
0.0
 48
0.0
140
0.18
141
0.09
142
0.0
143
25.4
144
1.0
145
0.0
146
1.0
147
0.09
 71
     0
 72
     0
 73
     1
 74
     1
 75
     0
 76
     0
 77
     0
 78
     0
170
     0
171
     2
172
     0
173
     0
174
     0
175
     0
176
     0
177
     0
178
     0
  0
ENDTAB
  0
ENDSEC
  0
SECTION
  2
BLOCKS
  0
BLOCK
  8
0
  2
$MODEL_SPACE
 70
     0
 10
0.0
 20
0.0
 30
0.0
  3
$MODEL_SPACE
  1

  0
ENDBLK
  5
21
  8
0
  0
BLOCK
 67
     1
  8
0
  2
$PAPER_SPACE
 70
     0
 10
0.0
 20
0.0
 30
0.0
  3
$PAPER_SPACE
  1

  0
ENDBLK
  5
1D
 67
     1
  8
0
  0
ENDSEC
  0
SECTION
  2
ENTITIES
  0
CIRCLE
  5
6B
  8
DEFAULT
 10
19.093
 20
3.907
 30
0.0
 40
0.06
  0
CIRCLE
  5
6C
  8
DEFAULT
 10
10.907
 20
3.907
 30
0.0
 40
0.06
  0
CIRCLE
  5
6D
  8
DEFAULT
 10
10.907
 20
12.093
 30
0.0
 40
0.06
  0
CIRCLE
  5
6E
  8
DEFAULT
 10
19.093
 20
12.093
 30
0.0
 40
0.06
  0
CIRCLE
  5
6F
  8
DEFAULT
 10
15.74999999999996
 20
7.407000000000001
 30
0.0
 40
0.1075
  0
CIRCLE
  5
70
  8
DEFAULT
 10
14.24999999999996
 20
7.407
 30
0.0
 40
0.1075
  0
CIRCLE
  5
71
  8
DEFAULT
 10
14.24999999999997
 20
8.593
 30
0.0
 40
0.1075
  0
CIRCLE
  5
72
  8
DEFAULT
 10
15.74999999999997
 20
8.593
 30
0.0
 40
0.1075
  0
LINE
  5
73
  8
DEFAULT
 10
10.68799999999999
 20
7.999999999999947
 30
0.0
 11
19.31199999999994
 21
8.000000000000004
 31
0.0
  0
LINE
  5
74
  8
DEFAULT
 10
14.99999999999994
 20
3.687999999999998
 30
0.0
 11
15.0
 21
12.31199999999995
 31
0.0
  0
LINE
  5
75
  8
DEFAULT
 10
14.83499999999987
 20
10.08699999999989
 30
0.0
 11
14.83499999999995
 21
9.936999999999923
 31
0.0
  0
LINE
  5
76
  8
DEFAULT
 10
15.16499999999987
 20
10.08700000000007
 30
0.0
 11
15.16499999999995
 21
9.937000000000104
 31
0.0
  0
LINE
  5
77
  8
DEFAULT
 10
14.83500000000001
 20
10.08699999999998
 30
0.0
 11
15.16499999999995
 21
10.08699999999998
 31
0.0
  0
LINE
  5
78
  8
DEFAULT
 10
14.83499999999998
 20
9.93700000000001
 30
0.0
 11
15.16499999999992
 21
9.937000000000017
 31
0.0
  0
LINE
  5
79
  8
DEFAULT
 10
14.83499999999987
 20
5.913000000000064
 30
0.0
 11
14.83499999999995
 21
6.063000000000027
 31
0.0
  0
LINE
  5
7A
  8
DEFAULT
 10
15.16499999999987
 20
5.912999999999883
 30
0.0
 11
15.16499999999995
 21
6.062999999999846
 31
0.0
  0
LINE
  5
7B
  8
DEFAULT
 10
14.83500000000001
 20
5.912999999999974
 30
0.0
 11
15.16499999999995
 21
5.912999999999972
 31
0.0
  0
LINE
  5
7C
  8
DEFAULT
 10
14.83499999999998
 20
6.06299999999994
 30
0.0
 11
15.16499999999992
 21
6.062999999999933
 31
0.0
  0
LINE
  5
7D
  8
DEFAULT
 10
18.56199999999992
 20
6.480911289370145
 30
0.0
 11
18.56199999999993
 21
7.999999999999998
 31
0.0
  0
ARC
  5
7E
  8
DEFAULT
 10
18.76199999999992
 20
6.480911289370145
 30
0.0
 40
0.2
 50
180.0
 51
229.9999999999938
  0
LINE
  5
7F
  8
DEFAULT
 10
19.24055752193724
 20
5.81827239134897
 30
0.0
 11
18.63344247806259
 21
6.327702400746363
 31
0.0
  0
ARC
  5
80
  8
DEFAULT
 10
19.11199999999993
 20
5.665063502725174
 30
0.0
 40
0.2
 50
359.9999999999911
 51
50.00000000000055
  0
LINE
  5
81
  8
DEFAULT
 10
19.31199999999994
 20
3.888000000000099
 30
0.0
 11
19.31199999999993
 21
5.665063502725143
 31
0.0
  0
ARC
  5
82
  8
DEFAULT
 10
19.11199999999994
 20
3.888000000000097
 30
0.0
 40
0.2
 50
269.9999999999898
 51
0.0000000000007633
  0
LINE
  5
83
  8
DEFAULT
 10
18.00134824788253
 20
3.688000000000051
 30
0.0
 11
19.1119999999999
 21
3.688000000000097
 31
0.0
  0
ARC
  5
84
  8
DEFAULT
 10
18.00134824788258
 20
3.888000000000051
 30
0.0
 40
0.2
 50
220.0000000000004
 51
269.9999999999837
  0
LINE
  5
85
  8
DEFAULT
 10
16.4247367849639
 20
5.455787609686516
 30
0.0
 11
17.84813935925879
 21
3.759442478062743
 31
0.0
  0
ARC
  5
86
  8
DEFAULT
 10
15.65869234184492
 20
4.81299999999998
 30
0.0
 40
1.0
 50
39.99999999999977
 51
90.0000000000003
  0
LINE
  5
87
  8
DEFAULT
 10
14.34130765815515
 20
5.812999999999938
 30
0.0
 11
15.65869234184491
 21
5.81299999999998
 31
0.0
  0
ARC
  5
88
  8
DEFAULT
 10
14.34130765815498
 20
4.812999999999938
 30
0.0
 40
1.0
 50
89.99999999998992
 51
139.9999999999999
  0
LINE
  5
89
  8
DEFAULT
 10
12.15186064074106
 20
3.759442478062681
 30
0.0
 11
13.575263215036
 21
5.455787609686478
 31
0.0
  0
ARC
  5
8A
  8
DEFAULT
 10
11.99865175211723
 20
3.887999999999958
 30
0.0
 40
0.2
 50
270.000000000001
 51
320.0000000000115
  0
LINE
  5
8B
  8
DEFAULT
 10
10.88799999999998
 20
3.687999999999942
 30
0.0
 11
11.99865175211724
 21
3.687999999999958
 31
0.0
  0
ARC
  5
8C
  8
DEFAULT
 10
10.88799999999998
 20
3.887999999999943
 30
0.0
 40
0.2
 50
179.9999999999869
 51
270.0000000000005
  0
LINE
  5
8D
  8
DEFAULT
 10
10.68799999999999
 20
5.665063502725174
 30
0.0
 11
10.68799999999998
 21
3.887999999999988
 31
0.0
  0
ARC
  5
8E
  8
DEFAULT
 10
10.88799999999999
 20
5.665063502725172
 30
0.0
 40
0.2
 50
130.0000000000027
 51
179.9999999999992
  0
LINE
  5
8F
  8
DEFAULT
 10
11.36655752193731
 20
6.327702400746363
 30
0.0
 11
10.75944247806267
 21
5.818272391348962
 31
0.0
  0
ARC
  5
90
  8
DEFAULT
 10
11.23799999999999
 20
6.480911289370145
 30
0.0
 40
0.2
 50
310.0000000000061
 51
0.0
  0
LINE
  5
91
  8
DEFAULT
 10
11.43799999999998
 20
7.999999999999998
 30
0.0
 11
11.43799999999999
 21
6.480911289370145
 31
0.0
  0
LINE
  5
92
  8
DEFAULT
 10
18.56199999999992
 20
9.519088710629852
 30
0.0
 11
18.56199999999993
 21
7.999999999999998
 31
0.0
  0
ARC
  5
93
  8
DEFAULT
 10
18.76199999999992
 20
9.519088710629852
 30
0.0
 40
0.2
 50
130.0000000000061
 51
180.0
  0
LINE
  5
94
  8
DEFAULT
 10
19.24055752193721
 20
10.181727608651
 30
0.0
 11
18.63344247806259
 21
9.672297599253634
 31
0.0
  0
ARC
  5
95
  8
DEFAULT
 10
19.1119999999999
 20
10.3349364972748
 30
0.0
 40
0.2
 50
310.000000000001
 51
0.0000000000025444
  0
LINE
  5
96
  8
DEFAULT
 10
19.31199999999991
 20
12.1119999999999
 30
0.0
 11
19.3119999999999
 21
10.33493649727481
 31
0.0
  0
ARC
  5
97
  8
DEFAULT
 10
19.11199999999991
 20
12.11199999999995
 30
0.0
 40
0.2
 50
359.9999999999868
 51
90.00000000000102
  0
LINE
  5
98
  8
DEFAULT
 10
18.00134824788267
 20
12.31199999999995
 30
0.0
 11
19.11199999999991
 21
12.31199999999995
 31
0.0
  0
ARC
  5
99
  8
DEFAULT
 10
18.00134824788267
 20
12.11199999999995
 30
0.0
 40
0.2
 50
89.99999999999898
 51
139.9999999999866
  0
LINE
  5
9A
  8
DEFAULT
 10
16.42473678496396
 20
10.54421239031346
 30
0.0
 11
17.84813935925891
 21
12.2405575219373
 31
0.0
  0
ARC
  5
9B
  8
DEFAULT
 10
15.65869234184496
 20
11.18699999999998
 30
0.0
 40
1.0
 50
270.0000000000005
 51
320.0000000000018
  0
LINE
  5
9C
  8
DEFAULT
 10
14.34130765815502
 20
10.18699999999997
 30
0.0
 11
15.65869234184497
 21
10.18699999999998
 31
0.0
  0
ARC
  5
9D
  8
DEFAULT
 10
14.34130765815502
 20
11.18699999999997
 30
0.0
 40
1.0
 50
219.9999999999986
 51
270.0000000000002
  0
LINE
  5
9E
  8
DEFAULT
 10
12.15186064074101
 20
12.24055752193738
 30
0.0
 11
13.57526321503602
 21
10.54421239031345
 31
0.0
  0
ARC
  5
9F
  8
DEFAULT
 10
11.99865175211731
 20
12.11199999999995
 30
0.0
 40
0.2
 50
40.00000000004405
 51
90.00000000000254
  0
LINE
  5
A0
  8
DEFAULT
 10
10.8880000000001
 20
12.31199999999991
 30
0.0
 11
11.9986517521173
 21
12.31199999999995
 31
0.0
  0
ARC
  5
A1
  8
DEFAULT
 10
10.88800000000004
 20
12.11199999999991
 30
0.0
 40
0.2
 50
89.99999999998371
 51
179.9999999999995
  0
LINE
  5
A2
  8
DEFAULT
 10
10.68800000000002
 20
10.33493649727478
 30
0.0
 11
10.68800000000004
 21
12.11199999999991
 31
0.0
  0
ARC
  5
A3
  8
DEFAULT
 10
10.88800000000002
 20
10.33493649727479
 30
0.0
 40
0.2
 50
180.000000000002
 51
230.0
  0
LINE
  5
A4
  8
DEFAULT
 10
11.36655752193731
 20
9.672297599253634
 30
0.0
 11
10.75944247806271
 21
10.18172760865099
 31
0.0
  0
ARC
  5
A5
  8
DEFAULT
 10
11.23799999999999
 20
9.519088710629852
 30
0.0
 40
0.2
 50
0.0
 51
49.99999999999388
  0
LINE
  5
A6
  8
DEFAULT
 10
11.43799999999998
 20
7.999999999999998
 30
0.0
 11
11.43799999999999
 21
9.519088710629852
 31
0.0
  0
ENDSEC
  0
EOF
