<?xml version="1.0" encoding="UTF-8"?>
<!DOCTYPE svg PUBLIC "-//W3C//DTD SVG 1.1//EN" "http://www.w3.org/Graphics/SVG/1.1/DTD/svg11.dtd">
<!-- Creator: CorelDRAW X7 -->
<svg xmlns="http://www.w3.org/2000/svg" xml:space="preserve" width="15in" height="24in" version="1.1" style="shape-rendering:geometricPrecision; text-rendering:geometricPrecision; image-rendering:optimizeQuality; fill-rule:evenodd; clip-rule:evenodd"
viewBox="0 0 15000 24000"
 xmlns:xlink="http://www.w3.org/1999/xlink">
 <defs>
  <style type="text/css">
   <![CDATA[
    .str0 {stroke:#373435;stroke-width:7.87402}
    .fil0 {fill:none}
   ]]>
  </style>
 </defs>
 <g id="Capa_x0020_1">
  <metadata id="CorelCorpID_0Corel-Layer"/>
  <g id="_486513784">
   <g>
    <path class="fil0 str0" d="M12292 19024l0 444 0 2355c0,98 -81,179 -180,179l-1285 0c-99,0 -179,-81 -179,-179l0 -1023 -1186 -1133 -991 0c-110,0 -199,-90 -199,-199l0 -444c0,-109 89,-199 199,-199l3622 0c109,0 199,90 199,199z"/>
    <circle class="fil0 str0" transform="matrix(2.64845E-014 1 -0.877659 2.32444E-014 11466 21093)" r="522"/>
    <circle class="fil0 str0" transform="matrix(2.72864E-014 1.03028 -1.03028 2.72864E-014 11894.3 19174.1)" r="83"/>
    <circle class="fil0 str0" transform="matrix(2.72864E-014 1.03028 -1.03028 2.72864E-014 10289 19174.1)" r="83"/>
    <circle class="fil0 str0" transform="matrix(2.72864E-014 1.03028 -1.03028 2.72864E-014 8673.49 19174.1)" r="83"/>
    <rect class="fil0 str0" transform="matrix(3.06299E-014 1.15652 -1.0484 2.77664E-014 12133.2 20357.1)" width="204" height="110" rx="55" ry="55"/>
    <rect class="fil0 str0" transform="matrix(3.06299E-014 1.15652 -1.0484 2.77664E-014 12133.2 21575.7)" width="204" height="110" rx="55" ry="55"/>
    <rect class="fil0 str0" transform="matrix(3.06299E-014 1.15652 -1.0484 2.77664E-014 10911.6 20357.1)" width="204" height="110" rx="55" ry="55"/>
    <rect class="fil0 str0" transform="matrix(3.06299E-014 1.15652 -1.0484 2.77664E-014 10911.6 21575.7)" width="204" height="110" rx="55" ry="55"/>
   </g>
   <g>
    <path class="fil0 str0" d="M11075 6853c10,125 -103,227 -229,227l-322 0c-127,0 -231,-103 -231,-230 0,-910 0,-1820 0,-2730 0,-435 356,-790 790,-790l67 0 940 0c87,0 157,71 157,158l0 1623 -384 384 0 585c0,119 -98,216 -217,216l-422 0c-85,18 -149,93 -149,183l0 374z"/>
    <circle class="fil0 str0" cx="11386" cy="4329" r="473"/>
    <circle class="fil0 str0" cx="10782" cy="3720" r="60"/>
    <circle class="fil0 str0" cx="11997" cy="3720" r="60"/>
    <circle class="fil0 str0" cx="10782" cy="4933" r="60"/>
    <circle class="fil0 str0" cx="11997" cy="4933" r="60"/>
    <circle class="fil0 str0" cx="10692" cy="5963" r="79"/>
    <circle class="fil0 str0" cx="11476" cy="5963" r="79"/>
    <circle class="fil0 str0" cx="10692" cy="6743" r="79"/>
   </g>
   <g>
    <rect class="fil0 str0" transform="matrix(2.65908E-014 1.00401 -1 2.64845E-014 3510.21 9886.28)" width="7029" height="3194" rx="226" ry="226"/>
    <rect class="fil0 str0" transform="matrix(2.64845E-014 1 -1 2.64845E-014 2501.97 11987.4)" width="3843" height="1572"/>
    <circle class="fil0 str0" transform="matrix(2.64845E-014 1 -1 2.64845E-014 1793.91 11005)" r="321"/>
    <circle class="fil0 str0" transform="matrix(2.64845E-014 1 -1 2.64845E-014 2550.37 11030.8)" r="258"/>
    <circle class="fil0 str0" transform="matrix(6.02919E-015 0.22765 -0.22765 6.02919E-015 3278.7 10122.2)" r="258"/>
    <circle class="fil0 str0" transform="matrix(6.02919E-015 0.22765 -0.22765 6.02919E-015 549.482 10103.8)" r="258"/>
    <circle class="fil0 str0" transform="matrix(6.02919E-015 0.22765 -0.22765 6.02919E-015 3278.7 16718.9)" r="258"/>
    <circle class="fil0 str0" transform="matrix(6.02919E-015 0.22765 -0.22765 6.02919E-015 549.482 16700.5)" r="258"/>
    <rect class="fil0 str0" transform="matrix(3.16344E-014 1.19445 -1 2.64845E-014 2940.16 10461.9)" width="219" height="122" rx="61" ry="61"/>
    <rect class="fil0 str0" transform="matrix(3.35951E-014 1.26848 -1 2.64845E-014 1014.91 10445.7)" width="219" height="122" rx="61" ry="61"/>
    <rect class="fil0 str0" transform="matrix(3.16344E-014 1.19445 -1 2.64845E-014 2940.16 16116.2)" width="219" height="122" rx="61" ry="61"/>
    <rect class="fil0 str0" transform="matrix(3.35951E-014 1.26848 -1 2.64845E-014 1014.91 16100)" width="219" height="122" rx="61" ry="61"/>
    <circle class="fil0 str0" transform="matrix(1.19217E-014 0.450139 -0.450139 1.19217E-014 1101.56 11020.7)" r="258"/>
   </g>
   <g>
    <rect class="fil0 str0" x="185" y="17355" width="5175" height="1573" rx="193" ry="194"/>
    <circle class="fil0 str0" cx="574" cy="17740" r="78"/>
    <circle class="fil0 str0" cx="574" cy="18535" r="78"/>
    <circle class="fil0 str0" cx="4949" cy="17740" r="78"/>
    <circle class="fil0 str0" cx="4949" cy="18535" r="78"/>
   </g>
   <g>
    <rect class="fil0 str0" transform="matrix(2.66838E-014 1.00752 -0.986866 2.61367E-014 9868.4 8867.6)" width="1390" height="797" rx="105" ry="105"/>
    <circle class="fil0 str0" transform="matrix(2.64845E-014 1 -1 2.64845E-014 9672.57 9257.01)" r="87"/>
    <circle class="fil0 str0" transform="matrix(2.64845E-014 1 -1 2.64845E-014 9279.43 9257.01)" r="87"/>
    <circle class="fil0 str0" transform="matrix(1.44454E-014 0.545426 -0.545426 1.44454E-014 9274.16 9827.06)" r="87"/>
    <circle class="fil0 str0" transform="matrix(1.44454E-014 0.545426 -0.545426 1.44454E-014 9274.16 10077.4)" r="87"/>
   </g>
   <g>
    <path class="fil0 str0" d="M14777 10763l0 480 0 1553c0,81 -66,147 -146,147l-493 0c-81,0 -147,-66 -147,-147l0 -1406 -1419 0c-81,0 -147,-66 -147,-147l0 -480c0,-80 66,-147 147,-147l1566 0 493 0 0 0c1,0 2,0 3,0l0 0c2,0 3,1 4,1l0 0c1,0 3,0 4,0l0 0c1,0 2,0 4,0l0 0c1,0 2,0 3,1l0 0c1,0 3,0 4,0l0 0c1,0 2,0 3,1l0 0c2,0 3,0 4,0l0 0c1,1 2,1 4,1l0 0c1,0 2,1 3,1l0 0c1,0 2,1 4,1l0 0c1,0 2,1 3,1l0 0c2,1 5,2 7,2l0 0c2,1 4,2 6,3l0 0c2,0 3,1 4,1l0 0c1,1 2,1 3,2l0 0c1,0 2,1 3,2l0 0c3,1 6,3 9,5l0 0c1,0 2,1 3,2l0 0c6,3 12,8 17,12l0 0c14,13 26,28 35,45l0 0c3,6 6,13 8,19 1,1 1,3 1,4l0 0c1,1 1,2 1,3l0 0c1,1 1,3 1,4l0 0c1,1 1,2 1,3l0 0c0,1 1,3 1,4l0 0c0,1 0,2 1,3l0 0c0,2 0,3 0,4l0 0c0,1 1,2 1,4l0 0c0,1 0,2 0,3l0 0c0,2 0,3 1,4l0 0c0,1 0,3 0,4l0 0c0,1 0,2 0,4l0 0c0,1 0,2 0,3l0 0zm-103 -140c2,1 5,2 7,2m0 0c2,1 4,2 6,3"/>
    <circle class="fil0 str0" transform="matrix(2.70452E-014 1.02117 -1.02117 2.70452E-014 13794.8 11002.9)" r="81"/>
    <circle class="fil0 str0" transform="matrix(2.70452E-014 1.02117 -1.02117 2.70452E-014 13005.8 11002.9)" r="81"/>
    <circle class="fil0 str0" transform="matrix(2.70452E-014 1.02117 -1.02117 2.70452E-014 14380.8 11588.8)" r="81"/>
    <circle class="fil0 str0" transform="matrix(2.70452E-014 1.02117 -1.02117 2.70452E-014 14380.8 12370.1)" r="81"/>
   </g>
   <g>
    <path class="fil0 str0" d="M7521 23360l-2846 0c-110,0 -200,-91 -200,-201l0 -3521c0,-111 90,-201 200,-201l2846 0c109,0 152,101 199,200l0 418c0,110 90,200 200,200l100 0 4 8 1351 0c96,0 175,79 175,175l0 1292c0,96 -79,175 -175,175l-1352 0 0 2 -103 0c-110,0 -200,90 -200,199l0 1054c-42,102 -90,200 -199,200z"/>
    <circle class="fil0 str0" cx="8740" cy="21077" r="479"/>
    <circle class="fil0 str0" cx="9354" cy="21688" r="60"/>
    <circle class="fil0 str0" cx="9354" cy="20468" r="60"/>
    <circle class="fil0 str0" cx="8129" cy="21688" r="60"/>
    <circle class="fil0 str0" cx="8129" cy="20468" r="60"/>
    <circle class="fil0 str0" cx="7102" cy="21776" r="80"/>
    <circle class="fil0 str0" cx="7317" cy="19808" r="141"/>
    <circle class="fil0 str0" cx="7317" cy="22951" r="141"/>
    <circle class="fil0 str0" cx="5092" cy="21776" r="80"/>
    <circle class="fil0 str0" cx="7102" cy="20992" r="80"/>
    <circle class="fil0 str0" cx="5092" cy="20992" r="80"/>
    <circle class="fil0 str0" cx="4859" cy="19816" r="101"/>
    <circle class="fil0 str0" cx="4859" cy="22963" r="101"/>
   </g>
   <g>
    <path class="fil0 str0" d="M12907 2070l-581 0c-112,0 -204,-88 -210,-198l0 -382c0,-110 -90,-200 -200,-200l-38 0 0 0 -361 0c-102,0 -185,-84 -185,-186l0 -406c0,-102 83,-186 185,-186l1768 0 422 0c425,0 772,348 772,772l0 1001c0,98 -80,177 -177,177l-1017 0 -378 -392z"/>
    <circle class="fil0 str0" cx="13478" cy="1584" r="102"/>
    <circle class="fil0 str0" cx="14085" cy="2197" r="102"/>
    <circle class="fil0 str0" cx="12836" cy="898" r="84"/>
    <circle class="fil0 str0" cx="12836" cy="1685" r="84"/>
    <circle class="fil0 str0" cx="11656" cy="898" r="84"/>
   </g>
   <g>
    <path class="fil0 str0" d="M509 4229l1241 0c111,0 202,91 202,201l0 1160c0,111 -91,202 -202,202l-1241 0c-196,0 -356,-160 -356,-355l0 -853c0,-195 160,-355 356,-355z"/>
    <circle class="fil0 str0" cx="588" cy="5013" r="207"/>
    <circle class="fil0 str0" cx="812" cy="4796" r="69"/>
    <circle class="fil0 str0" cx="368" cy="4796" r="69"/>
    <circle class="fil0 str0" cx="812" cy="5235" r="69"/>
    <circle class="fil0 str0" cx="368" cy="5235" r="69"/>
    <circle class="fil0 str0" cx="1556" cy="4620" r="77"/>
    <circle class="fil0 str0" cx="1556" cy="5411" r="77"/>
   </g>
   <g>
    <path class="fil0 str0" d="M7511 3065l2351 0c111,0 201,90 201,200l0 2059c0,116 -99,191 -205,192l-224 0c-110,0 -200,99 -200,209l0 793 -1 10c-5,41 -34,75 -75,75l-1331 0c-41,0 -75,-34 -75,-75l0 -1004 -441 0c-110,0 -201,-90 -201,-200l0 -2059c0,-110 91,-200 201,-200z"/>
    <circle class="fil0 str0" cx="7663" cy="3465" r="144"/>
    <circle class="fil0 str0" cx="9629" cy="3465" r="144"/>
    <circle class="fil0 str0" cx="7660" cy="5139" r="103"/>
    <circle class="fil0 str0" cx="9630" cy="5139" r="103"/>
    <rect class="fil0 str0" x="7421" y="4159" width="134" height="296"/>
    <rect class="fil0 str0" x="9822" y="4159" width="134" height="296"/>
    <circle class="fil0 str0" cx="8652" cy="5742" r="244"/>
    <circle class="fil0 str0" cx="8987" cy="5622" r="65"/>
    <circle class="fil0 str0" cx="8317" cy="5622" r="65"/>
    <circle class="fil0 str0" cx="8987" cy="6094" r="65"/>
    <circle class="fil0 str0" cx="8317" cy="6094" r="65"/>
    <circle class="fil0 str0" cx="9871" cy="4815" r="47"/>
    <circle class="fil0 str0" cx="9871" cy="4561" r="47"/>
   </g>
   <g>
    <path class="fil0 str0" d="M254 9199l2204 0 787 -790 2369 0 791 790 2227 0c70,0 128,-57 128,-127l0 -777 -2054 -2052c-29,-29 -62,-78 -62,-120l0 -2456c0,-42 51,-122 80,-152l2036 -2030 0 -805c0,-71 -58,-128 -128,-128l-2227 0 -791 794 -2369 0 -787 -794 -2204 0c-70,0 -127,57 -127,128l0 811 1979 2024c29,30 80,110 80,152l0 2456c0,42 -32,91 -62,120l-1997 1996 0 833c0,70 57,127 127,127z"/>
    <polygon class="fil0 str0" points="3636,3699 3646,3699 5215,3699 5608,3313 5608,2504 5215,2118 3636,2118 3243,2504 3243,3313 "/>
    <circle class="fil0 str0" cx="2850" cy="4027" r="103"/>
    <circle class="fil0 str0" cx="6002" cy="4027" r="103"/>
    <polygon class="fil0 str0" points="3636,6052 3646,6052 5215,6052 5608,6438 5608,7247 5215,7633 3636,7633 3243,7247 3243,6438 "/>
    <circle class="fil0 str0" cx="2845" cy="5710" r="143"/>
    <circle class="fil0 str0" cx="6002" cy="5710" r="143"/>
    <rect class="fil0 str0" x="2312" y="4704" width="141" height="320"/>
    <rect class="fil0 str0" x="6394" y="4704" width="141" height="320"/>
    <g>
     <circle class="fil0 str0" cx="324" cy="8986" r="62"/>
     <circle class="fil0 str0" cx="8532" cy="8986" r="62"/>
    </g>
    <g>
     <circle class="fil0 str0" cx="324" cy="765" r="62"/>
     <circle class="fil0 str0" cx="8532" cy="765" r="62"/>
    </g>
   </g>
   <g>
    <rect class="fil0 str0" transform="matrix(2.66838E-014 1.00752 -0.986866 2.61367E-014 9822.83 6832.43)" width="1390" height="797" rx="105" ry="105"/>
    <circle class="fil0 str0" transform="matrix(2.64845E-014 1 -1 2.64845E-014 9627 7221.83)" r="87"/>
    <circle class="fil0 str0" transform="matrix(2.64845E-014 1 -1 2.64845E-014 9233.86 7221.83)" r="87"/>
    <circle class="fil0 str0" transform="matrix(1.44454E-014 0.545426 -0.545426 1.44454E-014 9228.59 7791.89)" r="87"/>
    <circle class="fil0 str0" transform="matrix(1.44454E-014 0.545426 -0.545426 1.44454E-014 9228.59 8042.19)" r="87"/>
   </g>
   <g>
    <rect class="fil0 str0" x="7127" y="10964" width="5143" height="3540" rx="379" ry="381"/>
    <g>
     <circle class="fil0 str0" cx="11962" cy="11268" r="71"/>
     <circle class="fil0 str0" cx="11648" cy="11186" r="71"/>
    </g>
    <circle class="fil0 str0" cx="11890" cy="12492" r="87"/>
    <g>
     <circle class="fil0 str0" cx="11962" cy="14219" r="71"/>
     <circle class="fil0 str0" cx="11648" cy="14301" r="71"/>
    </g>
    <circle class="fil0 str0" cx="11890" cy="13279" r="87"/>
    <g>
     <circle class="fil0 str0" cx="7435" cy="11268" r="71"/>
     <circle class="fil0 str0" cx="7750" cy="11186" r="71"/>
    </g>
    <circle class="fil0 str0" cx="7507" cy="12492" r="87"/>
    <g>
     <circle class="fil0 str0" cx="7435" cy="14219" r="71"/>
     <circle class="fil0 str0" cx="7750" cy="14301" r="71"/>
    </g>
    <circle class="fil0 str0" cx="7507" cy="13279" r="87"/>
   </g>
   <g>
    <rect class="fil0 str0" x="7281" y="14969" width="5163" height="3615" rx="396" ry="398"/>
    <circle class="fil0 str0" cx="9858" cy="16766" r="732"/>
    <circle class="fil0 str0" cx="9233" cy="16138" r="51"/>
    <circle class="fil0 str0" cx="10489" cy="16138" r="51"/>
    <circle class="fil0 str0" cx="9233" cy="17399" r="51"/>
    <circle class="fil0 str0" cx="10489" cy="17399" r="51"/>
    <polygon class="fil0 str0" points="10170,17726 10965,17726 11456,18229 11456,18318 10167,18318 10055,18205 10055,17843 "/>
    <polygon class="fil0 str0" points="9548,17726 8753,17726 8262,18229 8262,18318 9551,18318 9663,18205 9663,17843 "/>
    <polygon class="fil0 str0" points="10170,15781 10965,15781 11456,15278 11456,15189 10167,15189 10055,15302 10055,15664 "/>
    <polygon class="fil0 str0" points="9548,15781 8753,15781 8262,15278 8262,15189 9551,15189 9663,15302 9663,15664 "/>
    <polygon class="fil0 str0" points="8502,17085 8502,17454 7999,17972 7910,17972 7910,17082 8022,16970 8385,16970 "/>
    <polygon class="fil0 str0" points="8502,16471 8502,16102 7999,15584 7910,15584 7910,16474 8022,16586 8385,16586 "/>
    <polygon class="fil0 str0" points="11224,17085 11224,17454 11727,17972 11816,17972 11816,17082 11703,16970 11341,16970 "/>
    <polygon class="fil0 str0" points="11224,16471 11224,16102 11727,15584 11816,15584 11816,16474 11703,16586 11341,16586 "/>
    <circle class="fil0 str0" cx="7593" cy="15290" r="62"/>
    <circle class="fil0 str0" cx="12126" cy="15290" r="62"/>
    <circle class="fil0 str0" cx="7593" cy="18251" r="62"/>
    <circle class="fil0 str0" cx="12126" cy="18251" r="62"/>
   </g>
   <g>
    <rect class="fil0 str0" transform="matrix(2.65908E-014 1.00401 -1 2.64845E-014 6904.63 9835.96)" width="7029" height="3194" rx="226" ry="226"/>
    <circle class="fil0 str0" transform="matrix(6.02919E-015 0.22765 -0.22765 6.02919E-015 6673.12 10071.9)" r="258"/>
    <circle class="fil0 str0" transform="matrix(6.02919E-015 0.22765 -0.22765 6.02919E-015 3943.9 10053.5)" r="258"/>
    <circle class="fil0 str0" transform="matrix(6.02919E-015 0.22765 -0.22765 6.02919E-015 6673.12 16668.5)" r="258"/>
    <circle class="fil0 str0" transform="matrix(6.02919E-015 0.22765 -0.22765 6.02919E-015 3943.9 16650.2)" r="258"/>
    <g>
     <circle class="fil0 str0" transform="matrix(8.67725E-015 0.327635 -0.327635 8.67725E-015 4045.84 14917)" r="258"/>
     <circle class="fil0 str0" transform="matrix(8.67725E-015 0.327635 -0.327635 8.67725E-015 4045.84 11812.6)" r="258"/>
    </g>
   </g>
   <g>
    <path class="fil0 str0" d="M13370 3716c-10,-126 103,-228 229,-228l322 0c127,0 231,104 231,230 0,911 0,1821 0,2731 0,434 -356,790 -790,790l-67 0 -940 0c-87,0 -158,-71 -158,-158l0 -1624 385 -384 0 -584c0,-119 98,-217 217,-217l422 0c85,-17 149,-93 149,-183l0 -373z"/>
    <circle class="fil0 str0" cx="13059" cy="6240" r="473"/>
    <circle class="fil0 str0" cx="13663" cy="6848" r="60"/>
    <circle class="fil0 str0" cx="12448" cy="6848" r="60"/>
    <circle class="fil0 str0" cx="13663" cy="5636" r="60"/>
    <circle class="fil0 str0" cx="12448" cy="5636" r="60"/>
    <circle class="fil0 str0" cx="13753" cy="4606" r="79"/>
    <circle class="fil0 str0" cx="12968" cy="4606" r="79"/>
    <circle class="fil0 str0" cx="13753" cy="3825" r="79"/>
   </g>
   <g>
    <circle class="fil0 str0" cx="10779" cy="8180" r="142"/>
    <path class="fil0 str0" d="M10356 7509l3997 0c124,0 225,101 225,224l0 590c0,124 -101,225 -225,225l-169 0 1 938 174 0c120,0 219,98 219,219l0 576c0,120 -99,219 -219,219l-4009 0c-120,0 -219,-99 -219,-219l0 -576c0,-121 99,-219 219,-219l173 0 2 -938 -169 0c-124,0 -225,-101 -225,-225l0 -590c0,-123 101,-224 225,-224z"/>
    <circle class="fil0 str0" cx="10765" cy="9854" r="101"/>
    <circle class="fil0 str0" cx="13930" cy="8180" r="142"/>
    <circle class="fil0 str0" cx="13917" cy="9854" r="101"/>
   </g>
   <g>
    <path class="fil0 str0" d="M12522 13835l0 -480 0 -1552c0,-81 66,-147 146,-147l493 0c80,0 146,66 146,147l0 1405 1420 0c80,0 146,66 146,147l0 480c0,81 -66,147 -146,147l-1566 0 -493 0 0 0c-1,0 -2,0 -4,0l0 0c-1,0 -2,0 -3,0l0 0c-2,0 -3,0 -4,0l0 0c-1,0 -3,0 -4,-1l0 0c-1,0 -2,0 -4,0l0 0c-1,0 -2,0 -3,-1l0 0c-1,0 -3,0 -4,0l0 0c-1,0 -2,-1 -3,-1l0 0c-2,0 -3,0 -4,-1l0 0c-1,0 -2,0 -3,0l0 0c-2,-1 -3,-1 -4,-1l0 0c-1,-1 -2,-1 -3,-1l0 0c-3,-1 -5,-2 -7,-3l0 0c-2,-1 -5,-1 -7,-2l0 0c-1,-1 -2,-1 -3,-2l0 0c-1,0 -2,-1 -3,-1l0 0c-1,-1 -2,-1 -3,-2l0 0c-4,-2 -7,-3 -10,-5l0 0c-1,-1 -2,-1 -3,-2l0 0c-6,-4 -11,-8 -17,-13l0 0c-14,-12 -26,-27 -34,-44l0 0c-4,-6 -6,-13 -9,-20 0,-1 0,-2 -1,-3l0 0c0,-1 0,-2 -1,-4l0 0c0,-1 0,-2 -1,-3l0 0c0,-1 0,-2 -1,-4l0 0c0,-1 0,-2 0,-3l0 0c-1,-1 -1,-3 -1,-4l0 0c0,-1 0,-2 -1,-3l0 0c0,-2 0,-3 0,-4l0 0c0,-1 0,-3 -1,-4l0 0c0,-1 0,-2 0,-3l0 -1c0,-1 0,-2 0,-3l0 0c0,-1 0,-3 0,-4l0 0c0,-1 0,-2 0,-4l0 0zm103 141c-3,-1 -5,-2 -7,-3m0 0c-2,-1 -5,-1 -7,-2"/>
    <circle class="fil0 str0" transform="matrix(-2.70452E-014 -1.02117 1.02117 -2.70452E-014 13503.8 13595.7)" r="81"/>
    <circle class="fil0 str0" transform="matrix(-2.70452E-014 -1.02117 1.02117 -2.70452E-014 14292.9 13595.7)" r="81"/>
    <circle class="fil0 str0" transform="matrix(-2.70452E-014 -1.02117 1.02117 -2.70452E-014 12917.9 13009.7)" r="81"/>
    <circle class="fil0 str0" transform="matrix(-2.70452E-014 -1.02117 1.02117 -2.70452E-014 12917.9 12228.5)" r="81"/>
   </g>
   <g>
    <path class="fil0 str0" d="M280 20151l1310 -600 2234 15c118,0 215,96 215,214l0 3493c0,118 -97,215 -215,215l-2054 0c-112,0 -205,-87 -214,-196l0 -1321c0,-204 -168,-372 -372,-372l-660 0 -1 -2c-205,0 -372,-168 -372,-373l0 -630 9 -271c1,-33 0,-49 16,-80 22,-42 63,-74 104,-92z"/>
    <circle class="fil0 str0" transform="matrix(2.68983E-014 -1.01562 1.01562 2.68983E-014 1959.93 23093.2)" r="143"/>
    <circle class="fil0 str0" transform="matrix(1.51938E-014 -0.573686 0.573686 1.51938E-014 2185.77 21904.5)" r="143"/>
    <circle class="fil0 str0" transform="matrix(1.92743E-014 -0.727756 0.727756 1.92743E-014 3639.98 23093.2)" r="143"/>
    <circle class="fil0 str0" transform="matrix(2.68983E-014 -1.01562 1.01562 2.68983E-014 1959.93 19947.4)" r="143"/>
    <circle class="fil0 str0" transform="matrix(1.92743E-014 -0.727756 0.727756 1.92743E-014 3639.98 19947.4)" r="143"/>
    <circle class="fil0 str0" transform="matrix(1.51938E-014 -0.573686 0.573686 1.51938E-014 2185.77 21119.5)" r="143"/>
    <circle class="fil0 str0" transform="matrix(1.51938E-014 -0.573686 0.573686 1.51938E-014 3421.85 21904.5)" r="143"/>
    <circle class="fil0 str0" transform="matrix(1.51938E-014 -0.573686 0.573686 1.51938E-014 3421.85 21119.5)" r="143"/>
    <circle class="fil0 str0" transform="matrix(1.92245E-014 -0.725878 0.725878 1.92245E-014 1148.34 21210.3)" r="143"/>
    <circle class="fil0 str0" transform="matrix(1.87058E-014 -0.706293 0.706293 1.87058E-014 541.38 20596.5)" r="143"/>
   </g>
   <g>
    <path class="fil0 str0" d="M11046 1442l581 0c112,0 204,88 210,198l0 382c0,110 90,200 200,200l38 0 0 0 361 0c102,0 185,84 185,186l0 406c0,102 -83,186 -185,186l-1768 0 -422 0c-425,0 -772,-348 -772,-772l0 -1001c0,-98 80,-178 177,-178l1017 0 378 393z"/>
    <circle class="fil0 str0" cx="10475" cy="1928" r="102"/>
    <circle class="fil0 str0" cx="9868" cy="1315" r="102"/>
    <circle class="fil0 str0" cx="11117" cy="2614" r="84"/>
    <circle class="fil0 str0" cx="11117" cy="1826" r="84"/>
    <circle class="fil0 str0" cx="12297" cy="2614" r="84"/>
   </g>
  </g>
 </g>
</svg>
