<?xml version="1.0" encoding="UTF-8" ?>
 <svg viewBox="312.6491288455675 -68.57726345541431  70.00002000000006 95.00071797750513" xmlns="http://www.w3.org/2000/svg" version="1.0" overflow="visible">
  <defs/>
  <g id="draft" transform="matrix(1 0 0 -1 0 0)" stroke-width="0.02062509224718815">
   <g id="ID_0" color="rgb(0,0,0)" stroke="currentColor" fill="none" stroke-width="0.02062509224718815">
    <line x1="323.7615888455676" y1="55.153463455414226" x2="323.48953884556755" y2="55.07673345541426"/>
    <line x1="316.67374884556773" y1="33.571973455414366" x2="316.76780884556746" y2="33.6976134554142"/>
    <line x1="322.08595884556763" y1="55.021583455414394" x2="321.8087288455675" y2="55.07673345541428"/>
    <line x1="316.49912884556755" y1="32.97726345541424" x2="316.5103288455675" y2="33.133813455414256"/>
    <line x1="324.53011884556764" y1="55.50776345541434" x2="324.2834988455675" y2="55.36964345541422"/>
    <line x1="320.53310884556737" y1="55.6648034554141" x2="320.31111884556753" y2="55.83980345541426"/>
    <line x1="320.31111884556753" y1="55.83980345541426" x2="320.1035488455677" y2="56.031683455414374"/>
    <line x1="319.44150884556757" y1="56.942903455414324" x2="319.3231588455677" y2="57.199603455414206"/>
    <line x1="319.14859884556756" y1="57.73686345541432" x2="319.09345884556757" y2="58.01410345541422"/>
    <line x1="316.76780884556746" y1="32.25692345541422" x2="316.67374884556756" y2="32.38256345541426"/>
    <line x1="317.65912884556735" y1="35.177263455414234" x2="317.65912884556747" y2="42.17726345541429"/>
    <line x1="317.4425888455675" y1="31.88846345541419" x2="317.2892288455676" y2="31.921823455414334"/>
    <line x1="316.67374884556756" y1="32.38256345541426" x2="316.59852884556744" y2="32.52031345541421"/>
    <line x1="316.59852884556744" y1="32.52031345541421" x2="316.5436888455676" y2="32.6673634554143"/>
    <line x1="321.01476884556746" y1="55.36964345541417" x2="320.7681388455674" y2="55.50776345541421"/>
    <line x1="319.9116688455676" y1="56.23925345541429" x2="319.73666884556764" y2="56.46124345541435"/>
    <line x1="319.5796188455675" y1="56.69627345541421" x2="319.44150884556757" y2="56.942903455414324"/>
    <line x1="325.19470884556745" y1="56.03168345541424" x2="324.98714884556745" y2="55.83980345541424"/>
    <line x1="317.1421688455676" y1="31.976673455414236" x2="317.00441884556756" y2="32.051893455414174"/>
    <line x1="320.75912884556755" y1="42.17726345541431" x2="320.75912884556743" y2="35.17726345541421"/>
    <line x1="326.24912884556755" y1="58.57726345541424" x2="326.2380288455678" y2="58.294813455414285"/>
    <line x1="316.5103288455675" y1="33.133813455414256" x2="316.5436888455675" y2="33.2871734554143"/>
    <line x1="326.23802884556756" y1="58.85971345541417" x2="326.24912884556755" y2="58.57726345541424"/>
    <line x1="325.97509884556763" y1="57.19960345541425" x2="325.85674884556744" y2="56.94290345541423"/>
    <line x1="326.14965884556767" y1="57.736863455414415" x2="326.07292884556733" y2="57.46480345541414"/>
    <line x1="326.2048088455676" y1="58.01410345541418" x2="326.14965884556767" y2="57.736863455414415"/>
    <line x1="325.5615988455675" y1="56.46124345541421" x2="325.3865888455675" y2="56.23925345541416"/>
    <line x1="322.9315788455676" y1="54.98836345541439" x2="322.64913884556756" y2="54.97726345541427"/>
    <line x1="322.3666788455675" y1="54.98836345541425" x2="322.08595884556763" y2="55.021583455414394"/>
    <line x1="321.8087288455675" y1="55.07673345541428" x2="321.53666884556753" y2="55.15346345541432"/>
    <line x1="316.5103288455675" y1="32.820723455414274" x2="316.49912884556755" y2="32.97726345541424"/>
    <line x1="319.22532884556756" y1="57.46480345541433" x2="319.14859884556756" y2="57.73686345541432"/>
    <line x1="322.64913884556756" y1="54.97726345541427" x2="322.3666788455675" y2="54.98836345541425"/>
    <line x1="316.5436888455676" y1="32.6673634554143" x2="316.5103288455675" y2="32.820723455414274"/>
    <line x1="317.65912884556747" y1="42.17726345541429" x2="320.75912884556755" y2="42.17726345541431"/>
    <line x1="316.76780884556746" y1="33.6976134554142" x2="316.87877884556747" y2="33.80859345541423"/>
    <line x1="326.2380288455678" y1="58.294813455414285" x2="326.2048088455676" y2="58.01410345541418"/>
    <line x1="325.85674884556744" y1="56.94290345541423" x2="325.7186388455675" y2="56.6962734554143"/>
    <line x1="323.48953884556755" y1="55.07673345541426" x2="323.21229884556755" y2="55.02158345541433"/>
    <line x1="316.5985288455676" y1="33.43422345541436" x2="316.67374884556773" y2="33.571973455414366"/>
    <line x1="323.21229884556755" y1="55.02158345541433" x2="322.9315788455676" y2="54.98836345541439"/>
    <line x1="320.7681388455674" y1="55.50776345541421" x2="320.53310884556737" y2="55.6648034554141"/>
    <line x1="319.73666884556764" y1="56.46124345541435" x2="319.5796188455675" y2="56.69627345541421"/>
    <line x1="321.53666884556753" y1="55.15346345541432" x2="321.27146884556754" y2="55.25130345541429"/>
    <line x1="319.09345884556757" y1="58.01410345541422" x2="319.0602288455675" y2="58.29481345541417"/>
    <line x1="316.5436888455675" y1="33.2871734554143" x2="316.5985288455676" y2="33.43422345541436"/>
    <line x1="319.0602288455675" y1="58.29481345541417" x2="319.04912884556757" y2="58.577263455414304"/>
    <line x1="319.04912884556757" y1="58.577263455414304" x2="319.06022884556774" y2="58.85971345541433"/>
    <line x1="319.06022884556774" y1="58.85971345541433" x2="319.09345884556757" y2="59.14043345541428"/>
    <line x1="324.76515884556744" y1="55.66480345541428" x2="324.53011884556764" y2="55.50776345541434"/>
    <line x1="324.0267888455675" y1="55.25130345541426" x2="323.7615888455676" y2="55.153463455414226"/>
    <line x1="319.3231588455677" y1="57.199603455414206" x2="319.22532884556756" y2="57.46480345541433"/>
    <line x1="324.2834988455675" y1="55.36964345541422" x2="324.0267888455675" y2="55.25130345541426"/>
    <line x1="321.27146884556754" y1="55.25130345541429" x2="321.01476884556746" y2="55.36964345541417"/>
    <line x1="317.2892288455676" y1="31.921823455414334" x2="317.1421688455676" y2="31.976673455414236"/>
    <line x1="325.3865888455675" y1="56.23925345541416" x2="325.19470884556745" y2="56.03168345541424"/>
    <line x1="324.98714884556745" y1="55.83980345541424" x2="324.76515884556744" y2="55.66480345541428"/>
    <line x1="320.1035488455677" y1="56.031683455414374" x2="319.9116688455676" y2="56.23925345541429"/>
    <line x1="317.59912884556746" y1="31.87727345541429" x2="317.4425888455675" y2="31.88846345541419"/>
    <line x1="326.07292884556733" y1="57.46480345541414" x2="325.97509884556763" y2="57.19960345541425"/>
    <line x1="320.75912884556743" y1="35.17726345541421" x2="317.65912884556735" y2="35.177263455414234"/>
    <line x1="325.7186388455675" y1="56.6962734554143" x2="325.5615988455675" y2="56.46124345541421"/>
    <line x1="316.8787788455675" y1="32.14594345541432" x2="316.76780884556746" y2="32.25692345541422"/>
    <line x1="317.00441884556756" y1="32.051893455414174" x2="316.8787788455675" y2="32.14594345541432"/>
    <line x1="325.38658884556753" y1="60.91528345541423" x2="325.5615988455675" y2="60.69329345541434"/>
    <line x1="321.80872884556754" y1="62.077793455414266" x2="322.0859588455674" y2="62.132943455414264"/>
    <line x1="347.3268238669871" y1="-8.034155173944018" x2="347.70182386698696" y2="-8.083524860539379"/>
    <line x1="320.76813884556753" y1="61.646773455414255" x2="321.0147688455675" y2="61.7848934554142"/>
    <line x1="326.1496588455675" y1="59.41767345541423" x2="326.2048088455676" y2="59.140433455414254"/>
    <line x1="346.97737949727025" y1="-7.889410576712462" x2="347.3268238669871" y2="-8.034155173944018"/>
    <line x1="346.44704941138053" y1="-7.359080490822451" x2="346.67730481414884" y2="-7.659155173944"/>
    <line x1="346.3023048141488" y1="-7.009636121105703" x2="346.44704941138053" y2="-7.359080490822451"/>
    <line x1="346.97737949727036" y1="-5.379861665498982" x2="346.67730481414884" y2="-5.610117068267365"/>
    <line x1="319.7366688455675" y1="60.69329345541427" x2="319.91166884556736" y2="60.91528345541419"/>
    <line x1="348.72634291982524" y1="-5.610117068267447" x2="348.42626823670395" y2="-5.3798616654989875"/>
    <line x1="319.1485988455677" y1="59.41767345541443" x2="319.2253288455675" y2="59.689723455414246"/>
    <line x1="319.91166884556736" y1="60.91528345541419" x2="320.10354884556745" y2="61.1228534554142"/>
    <line x1="320.10354884556745" y1="61.1228534554142" x2="320.31111884556736" y2="61.31472345541419"/>
    <line x1="348.72634291982547" y1="-7.659155173944008" x2="348.956598322594" y2="-7.359080490822448"/>
    <line x1="347.70182386698696" y1="-8.083524860539379" x2="348.0768238669871" y2="-8.03415517394401"/>
    <line x1="346.2529351275534" y1="-6.634636121105779" x2="346.3023048141488" y2="-7.009636121105703"/>
    <line x1="325.8567488455679" y1="60.21163345541434" x2="325.97509884556763" y2="59.954923455414296"/>
    <line x1="319.3231588455676" y1="59.954923455414345" x2="319.4415088455676" y2="60.21163345541423"/>
    <line x1="322.9315788455674" y1="62.16616345541434" x2="323.2122988455675" y2="62.132943455414264"/>
    <line x1="323.7615888455676" y1="62.00107345541428" x2="324.02678884556735" y2="61.90323345541429"/>
    <line x1="321.0147688455675" y1="61.7848934554142" x2="321.2714688455676" y2="61.90323345541433"/>
    <line x1="324.9871488455676" y1="61.31472345541428" x2="325.19470884556745" y2="61.1228534554142"/>
    <line x1="325.5615988455675" y1="60.69329345541434" x2="325.7186388455676" y2="60.458263455414226"/>
    <line x1="324.5301188455676" y1="61.646773455414326" x2="324.7651588455676" y2="61.48972345541438"/>
    <line x1="324.2834988455675" y1="61.78489345541426" x2="324.5301188455676" y2="61.646773455414326"/>
    <line x1="348.95659832259395" y1="-5.910191751388891" x2="348.72634291982524" y2="-5.610117068267447"/>
    <line x1="349.10134291982536" y1="-7.009636121105762" x2="349.1507126064206" y2="-6.634636121105791"/>
    <line x1="346.67730481414884" y1="-7.659155173944" x2="346.97737949727025" y2="-7.889410576712462"/>
    <line x1="347.3268238669871" y1="-5.235117068267376" x2="346.97737949727036" y2="-5.379861665498982"/>
    <line x1="320.53310884556754" y1="61.48972345541424" x2="320.76813884556753" y2="61.646773455414255"/>
    <line x1="348.0768238669871" y1="-5.23511706826747" x2="347.7018238669871" y2="-5.185747381672082"/>
    <line x1="348.42626823670395" y1="-5.3798616654989875" x2="348.0768238669871" y2="-5.23511706826747"/>
    <line x1="320.31111884556736" y1="61.31472345541419" x2="320.53310884556754" y2="61.48972345541424"/>
    <line x1="322.6491388455677" y1="62.177263455414234" x2="322.9315788455674" y2="62.16616345541434"/>
    <line x1="322.0859588455674" y1="62.132943455414264" x2="322.36667884556744" y2="62.16616345541425"/>
    <line x1="324.02678884556735" y1="61.90323345541429" x2="324.2834988455675" y2="61.78489345541426"/>
    <line x1="325.19470884556745" y1="61.1228534554142" x2="325.38658884556753" y2="60.91528345541423"/>
    <line x1="349.1013429198253" y1="-6.259636121105727" x2="348.95659832259395" y2="-5.910191751388891"/>
    <line x1="321.5366688455676" y1="62.00107345541426" x2="321.80872884556754" y2="62.077793455414266"/>
    <line x1="322.36667884556744" y1="62.16616345541425" x2="322.6491388455677" y2="62.177263455414234"/>
    <line x1="349.1507126064206" y1="-6.634636121105791" x2="349.1013429198253" y2="-6.259636121105727"/>
    <line x1="346.4470494113804" y1="-5.910191751388879" x2="346.30230481414884" y2="-6.259636121105665"/>
    <line x1="348.4262682367038" y1="-7.889410576712437" x2="348.72634291982547" y2="-7.659155173944008"/>
    <line x1="346.67730481414884" y1="-5.610117068267365" x2="346.4470494113804" y2="-5.910191751388879"/>
    <line x1="321.2714688455676" y1="61.90323345541433" x2="321.5366688455676" y2="62.00107345541426"/>
    <line x1="355.6712215362237" y1="-17.03511706826742" x2="355.32177716650705" y2="-17.179861665498954"/>
    <line x1="346.30230481414884" y1="-6.259636121105665" x2="346.2529351275534" y2="-6.634636121105779"/>
    <line x1="347.7018238669871" y1="-5.185747381672082" x2="347.3268238669871" y2="-5.235117068267376"/>
    <line x1="326.0729288455675" y1="59.68972345541411" x2="326.1496588455675" y2="59.41767345541423"/>
    <line x1="356.04622153622375" y1="-16.985747381672095" x2="355.6712215362237" y2="-17.03511706826742"/>
    <line x1="356.42122153622364" y1="-17.035117068267436" x2="356.04622153622375" y2="-16.985747381672095"/>
    <line x1="326.2048088455676" y1="59.140433455414254" x2="326.23802884556756" y2="58.85971345541417"/>
    <line x1="348.0768238669871" y1="-8.03415517394401" x2="348.4262682367038" y2="-7.889410576712437"/>
    <line x1="319.2253288455675" y1="59.689723455414246" x2="319.3231588455676" y2="59.954923455414345"/>
    <line x1="325.7186388455676" y1="60.458263455414226" x2="325.8567488455679" y2="60.21163345541434"/>
    <line x1="325.97509884556763" y1="59.954923455414296" x2="326.0729288455675" y2="59.68972345541411"/>
    <line x1="348.956598322594" y1="-7.359080490822448" x2="349.10134291982536" y2="-7.009636121105762"/>
    <line x1="319.09345884556757" y1="59.14043345541428" x2="319.1485988455677" y2="59.41767345541443"/>
    <line x1="323.48953884556755" y1="62.07779345541429" x2="323.7615888455676" y2="62.00107345541428"/>
    <line x1="323.2122988455675" y1="62.132943455414264" x2="323.48953884556755" y2="62.07779345541429"/>
    <line x1="324.7651588455676" y1="61.48972345541438" x2="324.9871488455676" y2="61.31472345541428"/>
    <line x1="319.57961884556755" y1="60.45826345541441" x2="319.7366688455675" y2="60.69329345541427"/>
    <line x1="319.4415088455676" y1="60.21163345541423" x2="319.57961884556755" y2="60.45826345541441"/>
    <line x1="340.410740589062" y1="-19.459155173944005" x2="340.64099599183055" y2="-19.159080490822447"/>
    <line x1="356.04622153622375" y1="-19.883524860539307" x2="356.42122153622375" y2="-19.834155173944072"/>
    <line x1="375.1498488455676" y1="17.86574345541425" x2="375.0735488455676" y2="17.63803345541432"/>
    <line x1="340.41074058906185" y1="-17.410117068267446" x2="340.11066590594055" y2="-17.179861665498986"/>
    <line x1="375.2380488455677" y1="18.337363455414366" x2="375.2048488455674" y2="18.09952345541422"/>
    <line x1="374.57054884556766" y1="16.825653455414297" x2="374.4007488455674" y2="16.65584345541421"/>
    <line x1="374.4007488455674" y1="16.65584345541421" x2="374.2159488455674" y2="16.50242345541418"/>
    <line x1="373.8080488455677" y1="16.249843455414265" x2="373.58834884556774" y2="16.152833455414335"/>
    <line x1="372.64914884556754" y1="15.977263455414267" x2="372.40924884556756" y2="15.988363455414238"/>
    <line x1="357.445740589062" y1="-18.0596361211057" x2="357.30099599183035" y2="-17.710191751388937"/>
    <line x1="340.83511027565714" y1="-18.43463612110579" x2="340.7857405890619" y2="-18.059636121105726"/>
    <line x1="354.64670248338524" y1="-18.059636121105765" x2="354.5973327967901" y2="-18.434636121105722"/>
    <line x1="354.79144708061693" y1="-17.71019175138896" x2="354.64670248338524" y2="-18.059636121105765"/>
    <line x1="340.1106659059403" y1="-19.689410576712433" x2="340.410740589062" y2="-19.459155173944005"/>
    <line x1="357.49511027565717" y1="-18.43463612110576" x2="357.445740589062" y2="-18.0596361211057"/>
    <line x1="339.3862215362235" y1="-19.883524860539378" x2="339.7612215362237" y2="-19.83415517394401"/>
    <line x1="339.01122153622373" y1="-17.035117068267375" x2="338.6617771665069" y2="-17.17986166549898"/>
    <line x1="355.02170248338547" y1="-17.41011706826731" x2="354.79144708061693" y2="-17.71019175138896"/>
    <line x1="340.64099599183055" y1="-19.159080490822447" x2="340.78574058906196" y2="-18.80963612110576"/>
    <line x1="355.02170248338524" y1="-19.459155173944094" x2="355.32177716650676" y2="-19.689410576712493"/>
    <line x1="338.13144708061714" y1="-19.15908049082245" x2="338.36170248338544" y2="-19.459155173943998"/>
    <line x1="357.0707405890621" y1="-19.459155173944016" x2="357.3009959918304" y2="-19.15908049082246"/>
    <line x1="355.32177716650705" y1="-17.179861665498954" x2="355.02170248338547" y2="-17.41011706826731"/>
    <line x1="355.32177716650676" y1="-19.689410576712493" x2="355.67122153622375" y2="-19.834155173944016"/>
    <line x1="338.66177716650685" y1="-19.68941057671246" x2="339.01122153622373" y2="-19.834155173944016"/>
    <line x1="338.36170248338544" y1="-19.459155173943998" x2="338.66177716650685" y2="-19.68941057671246"/>
    <line x1="337.9867024833854" y1="-18.8096361211057" x2="338.13144708061714" y2="-19.15908049082245"/>
    <line x1="337.93733279679" y1="-18.43463612110578" x2="337.9867024833854" y2="-18.8096361211057"/>
    <line x1="340.7857405890619" y1="-18.059636121105726" x2="340.6409959918305" y2="-17.71019175138889"/>
    <line x1="338.13144708061697" y1="-17.710191751388876" x2="337.98670248338544" y2="-18.05963612110566"/>
    <line x1="340.11066590594055" y1="-17.179861665498986" x2="339.7612215362237" y2="-17.035117068267468"/>
    <line x1="375.2048488455674" y1="18.09952345541422" x2="375.1498488455676" y2="17.86574345541425"/>
    <line x1="354.79144708061693" y1="-19.159080490822543" x2="355.02170248338524" y2="-19.459155173944094"/>
    <line x1="340.78574058906196" y1="-18.80963612110576" x2="340.83511027565714" y2="-18.43463612110579"/>
    <line x1="375.0735488455676" y1="17.63803345541432" x2="374.97654884556755" y2="17.41834345541431"/>
    <line x1="374.97654884556755" y1="17.41834345541431" x2="374.8596488455676" y2="17.2085434554143"/>
    <line x1="354.64670248338535" y1="-18.809636121105704" x2="354.79144708061693" y2="-19.159080490822543"/>
    <line x1="374.8596488455676" y1="17.2085434554143" x2="374.7239488455676" y2="17.010413455414273"/>
    <line x1="374.7239488455676" y1="17.010413455414273" x2="374.57054884556766" y2="16.825653455414297"/>
    <line x1="356.42122153622375" y1="-19.834155173944072" x2="356.7706659059406" y2="-19.689410576712383"/>
    <line x1="373.58834884556774" y1="16.152833455414335" x2="373.3606488455677" y2="16.076523455414307"/>
    <line x1="355.67122153622375" y1="-19.834155173944016" x2="356.04622153622375" y2="-19.883524860539307"/>
    <line x1="357.30099599183035" y1="-17.710191751388937" x2="357.0707405890621" y2="-17.41011706826742"/>
    <line x1="339.7612215362237" y1="-19.83415517394401" x2="340.1106659059403" y2="-19.689410576712433"/>
    <line x1="357.4457405890621" y1="-18.809636121105658" x2="357.49511027565717" y2="-18.43463612110576"/>
    <line x1="356.7706659059406" y1="-19.689410576712383" x2="357.0707405890621" y2="-19.459155173944016"/>
    <line x1="338.3617024833854" y1="-17.41011706826736" x2="338.13144708061697" y2="-17.710191751388876"/>
    <line x1="375.24914884556745" y1="18.57726345541422" x2="375.2380488455677" y2="18.337363455414366"/>
    <line x1="374.2159488455674" y1="16.50242345541418" x2="374.0178488455677" y2="16.366703455414264"/>
    <line x1="357.0707405890621" y1="-17.41011706826742" x2="356.77066590594046" y2="-17.179861665499036"/>
    <line x1="339.01122153622373" y1="-19.834155173944016" x2="339.3862215362235" y2="-19.883524860539378"/>
    <line x1="375.23804884556756" y1="18.81716345541426" x2="375.24914884556745" y2="18.57726345541422"/>
    <line x1="373.3606488455677" y1="16.076523455414307" x2="373.12684884556757" y2="16.021533455414314"/>
    <line x1="338.6617771665069" y1="-17.17986166549898" x2="338.3617024833854" y2="-17.41011706826736"/>
    <line x1="373.12684884556757" y1="16.021533455414314" x2="372.8890488455676" y2="15.98836345541423"/>
    <line x1="339.38622153622373" y1="-16.98574738167208" x2="339.01122153622373" y2="-17.035117068267375"/>
    <line x1="374.0178488455677" y1="16.366703455414264" x2="373.8080488455677" y2="16.249843455414265"/>
    <line x1="354.5973327967901" y1="-18.434636121105722" x2="354.64670248338535" y2="-18.809636121105704"/>
    <line x1="340.6409959918305" y1="-17.71019175138889" x2="340.41074058906185" y2="-17.410117068267446"/>
    <line x1="337.98670248338544" y1="-18.05963612110566" x2="337.93733279679" y2="-18.43463612110578"/>
    <line x1="372.8890488455676" y1="15.98836345541423" x2="372.64914884556754" y2="15.977263455414267"/>
    <line x1="339.7612215362237" y1="-17.035117068267468" x2="339.38622153622373" y2="-16.98574738167208"/>
    <line x1="357.3009959918304" y1="-19.15908049082246" x2="357.4457405890621" y2="-18.809636121105658"/>
    <line x1="356.77066590594046" y1="-17.179861665499036" x2="356.42122153622364" y2="-17.035117068267436"/>
    <line x1="340.5893797051054" y1="-14.637629366851924" x2="339.03646543449037" y2="-14.842074409117522"/>
    <line x1="370.0491488455676" y1="18.57726345541424" x2="370.06024884556757" y2="18.817163455414224"/>
    <line x1="370.09344884556754" y1="19.055013455414247" x2="370.1483488455676" y2="19.288793455414357"/>
    <line x1="374.85964884556756" y1="19.94598345541421" x2="374.9765488455675" y2="19.736183455414338"/>
    <line x1="375.14984884556765" y1="19.288793455414332" x2="375.20484884556754" y2="19.055013455414283"/>
    <line x1="339.0364654344903" y1="-2.8420744091175396" x2="340.58937970510556" y2="-3.046519451383023"/>
    <line x1="345.0364654344904" y1="-8.842074409117489" x2="344.8320203922247" y2="-10.394988679732606"/>
    <line x1="339.03646543449037" y1="-14.842074409117522" x2="337.48355116387535" y2="-14.637629366851836"/>
    <line x1="337.48355116387535" y1="-14.637629366851836" x2="336.03646543449037" y2="-14.03822683182411"/>
    <line x1="372.40924884556745" y1="21.166173455414178" x2="372.6491488455675" y2="21.177263455414156"/>
    <line x1="371.08224884556745" y1="20.652113455414227" x2="371.28044884556743" y2="20.78783345541425"/>
    <line x1="340.58937970510556" y1="-3.046519451383023" x2="342.0364654344905" y2="-3.645921986410809"/>
    <line x1="371.93764884556754" y1="16.076523455414264" x2="371.7099488455675" y2="16.15283345541416"/>
    <line x1="372.40924884556756" y1="15.988363455414238" x2="372.1713488455676" y2="16.021533455414264"/>
    <line x1="371.28044884556743" y1="20.78783345541425" x2="371.49024884556746" y2="20.904693455414233"/>
    <line x1="371.7099488455675" y1="21.001693455414298" x2="371.9376488455677" y2="21.07801345541427"/>
    <line x1="372.1713488455675" y1="21.133003455414194" x2="372.40924884556745" y2="21.166173455414178"/>
    <line x1="337.4835511638752" y1="-3.0465194513831073" x2="339.0364654344903" y2="-2.8420744091175396"/>
    <line x1="371.9376488455677" y1="21.07801345541427" x2="372.1713488455675" y2="21.133003455414194"/>
    <line x1="370.4385488455674" y1="17.208543455414244" x2="370.3217488455676" y2="17.41834345541422"/>
    <line x1="370.0934488455676" y1="18.09952345541422" x2="370.0602488455675" y2="18.33736345541424"/>
    <line x1="373.36064884556754" y1="21.0780134554142" x2="373.5883488455677" y2="21.00169345541434"/>
    <line x1="373.80804884556744" y1="20.904693455414165" x2="374.01784884556776" y2="20.787833455414354"/>
    <line x1="370.5742488455675" y1="17.010413455414216" x2="370.4385488455674" y2="17.208543455414244"/>
    <line x1="374.01784884556776" y1="20.787833455414354" x2="374.2159488455676" y2="20.652113455414238"/>
    <line x1="375.20484884556754" y1="19.055013455414283" x2="375.23804884556756" y2="18.81716345541426"/>
    <line x1="344.83202039222493" y1="-7.289160138502319" x2="345.0364654344904" y2="-8.842074409117489"/>
    <line x1="370.89754884556766" y1="16.65584345541428" x2="370.72774884556765" y2="16.825653455414283"/>
    <line x1="371.0822488455677" y1="16.502423455414366" x2="370.89754884556766" y2="16.65584345541428"/>
    <line x1="372.1713488455676" y1="16.021533455414264" x2="371.93764884556754" y2="16.076523455414264"/>
    <line x1="370.22474884556766" y1="19.516493455414327" x2="370.3217488455675" y2="19.73618345541426"/>
    <line x1="373.12684884556757" y1="21.133003455414286" x2="373.36064884556754" y2="21.0780134554142"/>
    <line x1="370.3217488455676" y1="17.41834345541422" x2="370.22474884556743" y2="17.638033455414185"/>
    <line x1="372.6491488455675" y1="21.177263455414156" x2="372.88904884556763" y2="21.166173455414313"/>
    <line x1="374.72394884556763" y1="20.144113455414363" x2="374.85964884556756" y2="19.94598345541421"/>
    <line x1="344.8320203922247" y1="-10.394988679732606" x2="344.23261785719694" y2="-11.842074409117512"/>
    <line x1="370.22474884556743" y1="17.638033455414185" x2="370.1483488455675" y2="17.865743455414215"/>
    <line x1="370.72774884556753" y1="20.328873455414207" x2="370.8975488455674" y2="20.498693455414113"/>
    <line x1="373.5883488455677" y1="21.00169345541434" x2="373.80804884556744" y2="20.904693455414165"/>
    <line x1="371.28044884556755" y1="16.366703455414243" x2="371.0822488455677" y2="16.502423455414366"/>
    <line x1="371.7099488455675" y1="16.15283345541416" x2="371.4902488455674" y2="16.249843455414187"/>
    <line x1="370.72774884556765" y1="16.825653455414283" x2="370.5742488455675" y2="17.010413455414216"/>
    <line x1="370.06024884556757" y1="18.817163455414224" x2="370.09344884556754" y2="19.055013455414247"/>
    <line x1="370.4385488455675" y1="19.94598345541418" x2="370.5742488455674" y2="20.144113455414193"/>
    <line x1="372.88904884556763" y1="21.166173455414313" x2="373.12684884556757" y2="21.133003455414286"/>
    <line x1="375.07354884556753" y1="19.51649345541425" x2="375.14984884556765" y2="19.288793455414332"/>
    <line x1="374.2159488455676" y1="20.652113455414238" x2="374.4007488455675" y2="20.4986934554142"/>
    <line x1="344.23261785719694" y1="-11.842074409117512" x2="343.2791061216097" y2="-13.08471509623678"/>
    <line x1="371.4902488455674" y1="16.249843455414187" x2="371.28044884556755" y2="16.366703455414243"/>
    <line x1="343.2791061216097" y1="-13.08471509623678" x2="342.0364654344904" y2="-14.038226831824124"/>
    <line x1="342.0364654344904" y1="-14.038226831824124" x2="340.5893797051054" y2="-14.637629366851924"/>
    <line x1="370.1483488455676" y1="19.288793455414357" x2="370.22474884556766" y2="19.516493455414327"/>
    <line x1="370.0602488455675" y1="18.33736345541424" x2="370.0491488455676" y2="18.57726345541424"/>
    <line x1="370.5742488455674" y1="20.144113455414193" x2="370.72774884556753" y2="20.328873455414207"/>
    <line x1="370.3217488455675" y1="19.73618345541426" x2="370.4385488455675" y2="19.94598345541418"/>
    <line x1="371.49024884556746" y1="20.904693455414233" x2="371.7099488455675" y2="21.001693455414298"/>
    <line x1="374.4007488455675" y1="20.4986934554142" x2="374.5705488455677" y2="20.32887345541423"/>
    <line x1="370.1483488455675" y1="17.865743455414215" x2="370.0934488455676" y2="18.09952345541422"/>
    <line x1="374.9765488455675" y1="19.736183455414338" x2="375.07354884556753" y2="19.51649345541425"/>
    <line x1="344.232617857197" y1="-5.842074409117466" x2="344.83202039222493" y2="-7.289160138502319"/>
    <line x1="342.0364654344905" y1="-3.645921986410809" x2="343.27910612160963" y2="-4.599433721998238"/>
    <line x1="374.5705488455677" y1="20.32887345541423" x2="374.72394884556763" y2="20.144113455414363"/>
    <line x1="343.27910612160963" y1="-4.599433721998238" x2="344.232617857197" y2="-5.842074409117466"/>
    <line x1="370.8975488455674" y1="20.498693455414113" x2="371.08224884556745" y2="20.652113455414227"/>
    <line x1="367.7478608858424" y1="6.366547316455952" x2="367.8729661417002" y2="6.739128013669381"/>
    <line x1="367.6491488455676" y1="4.577243455414174" x2="367.6728209608175" y2="5.980753705011252"/>
    <line x1="368.26385546436205" y1="7.419124501081084" x2="368.5228548080831" y2="7.7147374928987205"/>
    <line x1="368.8184677999007" y1="7.973736836619733" x2="369.1455634419264" y2="8.191627042794915"/>
    <line x1="367.6728209608175" y1="5.980753705011252" x2="367.7478608858424" y2="6.366547316455952"/>
    <line x1="367.8729661417002" y1="6.739128013669381" x2="368.04596525818687" y2="7.092028859055351"/>
    <line x1="369.1455634419264" y1="8.191627042794915" x2="369.4984642873124" y2="8.364626159281556"/>
    <line x1="368.5228548080831" y1="7.7147374928987205" x2="368.8184677999007" y2="7.973736836619733"/>
    <line x1="369.4984642873124" y1="8.364626159281556" x2="369.87104498452584" y2="8.489731415139355"/>
    <line x1="369.87104498452584" y1="8.489731415139355" x2="370.2568385959705" y2="8.564771340164281"/>
    <line x1="379.24534884556755" y1="8.621943455414272" x2="378.9480488455676" y2="8.588443455414215"/>
    <line x1="379.5392488455674" y1="8.67754345541411" x2="379.24534884556755" y2="8.621943455414272"/>
    <line x1="368.04596525818687" y1="7.092028859055351" x2="368.26385546436205" y2="7.419124501081084"/>
    <line x1="378.9480488455676" y1="8.588443455414215" x2="370.2568385959705" y2="8.564771340164281"/>
    <line x1="314.1551688455676" y1="67.70459345541433" x2="313.92843884556754" y2="67.50947345541434"/>
    <line x1="313.3441688455674" y1="66.83054345541426" x2="313.1850288455675" y2="66.57726345541425"/>
    <line x1="313.7169188455676" y1="67.29795345541424" x2="313.52180884556753" y2="67.07122345541434"/>
    <line x1="316.6491388455675" y1="68.57726345541423" x2="316.35020884556764" y2="68.56608345541429"/>
    <line x1="316.35020884556764" y1="68.56608345541429" x2="316.05295884556756" y2="68.5325934554143"/>
    <line x1="382.5488488455676" y1="65.46735345541424" x2="382.47144884556775" y2="65.75628345541426"/>
    <line x1="316.05295884556756" y1="68.5325934554143" x2="315.7590388455676" y2="68.47697345541438"/>
    <line x1="315.7590388455676" y1="68.47697345541438" x2="315.4701088455675" y2="68.39956345541421"/>
    <line x1="312.6938088455677" y1="65.17343345541444" x2="312.66031884556753" y2="64.87618345541426"/>
    <line x1="312.6491288455676" y1="64.57726345541423" x2="312.6491288455675" y2="12.577243455414255"/>
    <line x1="382.6044488455675" y1="65.17343345541427" x2="382.63794884556773" y2="64.87618345541429"/>
    <line x1="382.11324884556757" y1="66.5772634554142" x2="381.9540488455677" y2="66.83054345541429"/>
    <line x1="380.9024488455675" y1="67.88222345541429" x2="380.6491488455676" y2="68.04136345541427"/>
    <line x1="314.9135888455676" y1="68.18114345541423" x2="314.6491388455675" y2="68.0413634554142"/>
    <line x1="314.6491388455675" y1="68.0413634554142" x2="314.39585884556766" y2="67.88222345541429"/>
    <line x1="313.1850288455675" y1="66.57726345541425" x2="313.0452488455674" y2="66.3128034554142"/>
    <line x1="312.9256388455675" y1="66.03863345541413" x2="312.8268388455678" y2="65.75628345541433"/>
    <line x1="382.6379488455676" y1="12.278343455414216" x2="382.6491488455675" y2="12.577243455414164"/>
    <line x1="382.6044488455675" y1="11.981143455414237" x2="382.6379488455676" y2="12.278343455414216"/>
    <line x1="382.4714488455675" y1="11.398243455414212" x2="382.37264884556765" y2="11.115943455414236"/>
    <line x1="380.11044884556736" y1="68.30076345541421" x2="379.82814884556757" y2="68.3995634554142"/>
    <line x1="382.5488488455676" y1="11.687143455414281" x2="382.6044488455675" y2="11.981143455414237"/>
    <line x1="312.6603188455676" y1="12.27834345541424" x2="312.6491288455675" y2="12.577243455414255"/>
    <line x1="382.5488488455676" y1="11.687143455414281" x2="382.4714488455675" y2="11.398243455414212"/>
    <line x1="382.6491488455675" y1="12.577243455414164" x2="382.64914884556754" y2="64.57726345541427"/>
    <line x1="379.8281488455677" y1="8.754943455414251" x2="379.5392488455674" y2="8.67754345541411"/>
    <line x1="381.9540488455677" y1="66.83054345541429" x2="381.77644884556753" y2="67.0712234554143"/>
    <line x1="378.9480488455677" y1="68.56608345541433" x2="378.6491488455677" y2="68.57726345541431"/>
    <line x1="378.6491488455677" y1="68.57726345541431" x2="316.6491388455675" y2="68.57726345541423"/>
    <line x1="381.14304884556765" y1="67.70459345541435" x2="380.9024488455675" y2="67.88222345541429"/>
    <line x1="315.18776884556775" y1="68.30076345541428" x2="314.9135888455676" y2="68.18114345541423"/>
    <line x1="380.64914884556754" y1="9.113143455414141" x2="380.3846488455676" y2="8.973343455414236"/>
    <line x1="382.2530488455675" y1="66.31280345541423" x2="382.11324884556757" y2="66.5772634554142"/>
    <line x1="381.36984884556756" y1="9.645043455414248" x2="381.1430488455676" y2="9.449943455414147"/>
    <line x1="382.11324884556757" y1="10.577243455414305" x2="381.95404884556757" y2="10.323943455414222"/>
    <line x1="382.2530488455675" y1="10.841743455414209" x2="382.11324884556757" y2="10.577243455414305"/>
    <line x1="382.47144884556775" y1="65.75628345541426" x2="382.37264884556765" y2="66.03863345541428"/>
    <line x1="313.92843884556754" y1="67.50947345541434" x2="313.7169188455676" y2="67.29795345541424"/>
    <line x1="313.52180884556753" y1="67.07122345541434" x2="313.3441688455674" y2="66.83054345541426"/>
    <line x1="381.1430488455676" y1="9.449943455414147" x2="380.9024488455676" y2="9.272343455414275"/>
    <line x1="381.58134884556756" y1="9.856543455414254" x2="381.36984884556756" y2="9.645043455414248"/>
    <line x1="381.95404884556757" y1="10.323943455414222" x2="381.7764488455675" y2="10.083343455414205"/>
    <line x1="380.38464884556765" y1="68.18114345541426" x2="380.11044884556736" y2="68.30076345541421"/>
    <line x1="381.7764488455675" y1="10.083343455414205" x2="381.58134884556756" y2="9.856543455414254"/>
    <line x1="381.5813488455676" y1="67.29795345541427" x2="381.36984884556756" y2="67.50947345541425"/>
    <line x1="315.4701088455675" y1="68.39956345541421" x2="315.18776884556775" y2="68.30076345541428"/>
    <line x1="381.36984884556756" y1="67.50947345541425" x2="381.14304884556765" y2="67.70459345541435"/>
    <line x1="314.39585884556766" y1="67.88222345541429" x2="314.1551688455676" y2="67.70459345541433"/>
    <line x1="379.82814884556757" y1="68.3995634554142" x2="379.5392488455676" y2="68.47697345541428"/>
    <line x1="381.77644884556753" y1="67.0712234554143" x2="381.5813488455676" y2="67.29795345541427"/>
    <line x1="313.0452488455674" y1="66.3128034554142" x2="312.9256388455675" y2="66.03863345541413"/>
    <line x1="312.8268388455678" y1="65.75628345541433" x2="312.7494188455676" y2="65.46735345541431"/>
    <line x1="312.7494188455676" y1="65.46735345541431" x2="312.6938088455677" y2="65.17343345541444"/>
    <line x1="312.66031884556753" y1="64.87618345541426" x2="312.6491288455676" y2="64.57726345541423"/>
    <line x1="380.9024488455676" y1="9.272343455414275" x2="380.64914884556754" y2="9.113143455414141"/>
    <line x1="382.37264884556765" y1="11.115943455414236" x2="382.2530488455675" y2="10.841743455414209"/>
    <line x1="382.63794884556773" y1="64.87618345541429" x2="382.64914884556754" y2="64.57726345541427"/>
    <line x1="382.5488488455676" y1="65.46735345541424" x2="382.6044488455675" y2="65.17343345541427"/>
    <line x1="380.11044884556765" y1="8.85374345541431" x2="379.8281488455677" y2="8.754943455414251"/>
    <line x1="380.3846488455676" y1="8.973343455414236" x2="380.11044884556765" y2="8.85374345541431"/>
    <line x1="379.5392488455676" y1="68.47697345541428" x2="379.24534884556755" y2="68.53259345541416"/>
    <line x1="380.6491488455676" y1="68.04136345541427" x2="380.38464884556765" y2="68.18114345541426"/>
    <line x1="382.37264884556765" y1="66.03863345541428" x2="382.2530488455675" y2="66.31280345541423"/>
    <line x1="379.24534884556755" y1="68.53259345541416" x2="378.9480488455677" y2="68.56608345541433"/>
    <line x1="328.07035038142794" y1="-24.909830142419107" x2="327.89465371835286" y2="-24.561460063910204"/>
    <line x1="367.53367592822156" y1="-24.193601233865778" x2="367.61595818680775" y2="-23.81220818340735"/>
    <line x1="367.6491488455675" y1="-23.42345452209068" x2="367.6491488455676" y2="4.577243455414174"/>
    <line x1="318.3769392338049" y1="25.59946306717699" x2="318.31947884556763" y2="25.54594345541424"/>
    <line x1="365.78715438738686" y1="-26.177939649305447" x2="366.1355244658958" y2="-26.002242986230357"/>
    <line x1="318.31947884556763" y1="25.54594345541424" x2="318.1938388455677" y2="25.451883455414297"/>
    <line x1="318.1491238455675" y1="25.42465417150555" x2="318.05608884556756" y2="25.37667345541427"/>
    <line x1="318.05608884556756" y1="25.37667345541427" x2="317.9090288455675" y2="25.321823455414233"/>
    <line x1="317.9090288455675" y1="25.321823455414233" x2="317.8838272069898" y2="25.314764705754698"/>
    <line x1="367.00942994099574" y1="-25.233072402705034" x2="367.22793730970716" y2="-24.909830142418976"/>
    <line x1="327.6491388455676" y1="4.577243455414304" x2="327.6491388455676" y2="5.5884434554142475"/>
    <line x1="317.8838272069898" y1="25.314764705754698" x2="317.7556788455675" y2="25.288463455414313"/>
    <line x1="317.7556788455675" y1="25.288463455414313" x2="317.59912884556746" y2="25.27726345541419"/>
    <line x1="328.8395209649533" y1="-25.783735617519064" x2="328.54663884556766" y2="-25.525954522090824"/>
    <line x1="317.59912884556746" y1="25.27726345541419" x2="317.5729517863255" y2="25.277574968705466"/>
    <line x1="317.5729517863255" y1="25.277574968705466" x2="317.5467895533159" y2="25.278509332143585"/>
    <line x1="330.6491388455676" y1="-26.423454522090825" x2="330.260385184251" y2="-26.390263863331032"/>
    <line x1="316.05295884556756" y1="8.62194345541434" x2="315.7590388455675" y2="8.677543455414188"/>
    <line x1="315.7590388455675" y1="8.677543455414188" x2="315.4701088455674" y2="8.754943455414166"/>
    <line x1="314.9135888455675" y1="8.973343455414254" x2="314.64913884556756" y2="9.113143455414264"/>
    <line x1="327.6823295043274" y1="-23.812208183407495" x2="327.6491388455676" y2="-23.423454522090825"/>
    <line x1="315.4701088455674" y1="8.754943455414166" x2="315.1877688455675" y2="8.853743455414277"/>
    <line x1="327.6491388455676" y1="-23.423454522090825" x2="327.6491388455676" y2="4.577243455414304"/>
    <line x1="315.1877688455675" y1="8.853743455414277" x2="314.9135888455675" y2="8.973343455414254"/>
    <line x1="316.3502088455675" y1="8.588443455414254" x2="316.05295884556756" y2="8.62194345541434"/>
    <line x1="312.69380884556773" y1="11.981143455414344" x2="312.6603188455676" y2="12.27834345541424"/>
    <line x1="329.16276322523936" y1="-26.00224298623048" x2="328.8395209649533" y2="-25.783735617519064"/>
    <line x1="329.8789921337925" y1="-26.307981604744857" x2="329.51113330374824" y2="-26.17793964930557"/>
    <line x1="365.4192955573426" y1="-26.307981604744725" x2="365.78715438738686" y2="-26.177939649305447"/>
    <line x1="366.75164884556756" y1="-25.5259545220907" x2="367.00942994099574" y2="-25.233072402705034"/>
    <line x1="367.61595818680775" y1="-23.81220818340735" x2="367.6491488455675" y2="-23.42345452209068"/>
    <line x1="312.92563884556756" y1="11.115943455414259" x2="312.8268388455676" y2="11.39824345541424"/>
    <line x1="318.5245088455677" y1="25.782553455414355" x2="318.4304588455677" y2="25.656913455414337"/>
    <line x1="313.34416884556754" y1="10.323943455414245" x2="313.1850288455675" y2="10.577243455414287"/>
    <line x1="314.15516884556763" y1="9.44994345541427" x2="313.92843884556765" y2="9.645043455414383"/>
    <line x1="314.39585884556766" y1="9.272343455414296" x2="314.15516884556763" y2="9.44994345541427"/>
    <line x1="327.7646117629136" y1="-24.193601233865916" x2="327.6823295043274" y2="-23.812208183407495"/>
    <line x1="318.55174812947627" y1="25.827278455414362" x2="318.5245088455677" y2="25.782553455414355"/>
    <line x1="318.4304588455677" y1="25.656913455414337" x2="318.3769392338049" y2="25.59946306717699"/>
    <line x1="313.1850288455675" y1="10.577243455414287" x2="313.0452488455676" y2="10.841743455414287"/>
    <line x1="313.5218088455675" y1="10.08334345541429" x2="313.34416884556754" y2="10.323943455414245"/>
    <line x1="313.92843884556765" y1="9.645043455414383" x2="313.71691884556736" y2="9.856543455414254"/>
    <line x1="328.54663884556766" y1="-25.525954522090824" x2="328.28885775013936" y2="-25.23307240270516"/>
    <line x1="313.71691884556736" y1="9.856543455414254" x2="313.5218088455675" y2="10.08334345541429"/>
    <line x1="330.260385184251" y1="-26.390263863331032" x2="329.8789921337925" y2="-26.307981604744857"/>
    <line x1="367.22793730970716" y1="-24.909830142418976" x2="367.40363397278225" y2="-24.56146006391007"/>
    <line x1="318.66163759522715" y1="26.092575093992007" x2="318.6545688455675" y2="26.06736345541425"/>
    <line x1="365.03790250688417" y1="-26.39026386333089" x2="365.4192955573426" y2="-26.307981604744725"/>
    <line x1="367.40363397278225" y1="-24.56146006391007" x2="367.53367592822156" y2="-24.193601233865778"/>
    <line x1="328.28885775013936" y1="-25.23307240270516" x2="328.07035038142794" y2="-24.909830142419107"/>
    <line x1="366.45876672618186" y1="-25.783735617518946" x2="366.75164884556756" y2="-25.5259545220907"/>
    <line x1="318.6545688455675" y1="26.06736345541425" x2="318.5997288455676" y2="25.920303455414246"/>
    <line x1="318.5997288455676" y1="25.920303455414246" x2="318.55174812947627" y2="25.827278455414362"/>
    <line x1="364.6491488455675" y1="-26.42345452209068" x2="365.03790250688417" y2="-26.39026386333089"/>
    <line x1="313.0452488455676" y1="10.841743455414287" x2="312.92563884556756" y2="11.115943455414259"/>
    <line x1="314.64913884556756" y1="9.113143455414264" x2="314.39585884556766" y2="9.272343455414296"/>
    <line x1="324.6491388455677" y1="8.588443455414248" x2="316.3502088455675" y2="8.588443455414254"/>
    <line x1="318.1938388455677" y1="25.451883455414297" x2="318.1491238455675" y2="25.42465417150555"/>
    <line x1="312.7494188455677" y1="11.687143455414253" x2="312.69380884556773" y2="11.981143455414344"/>
    <line x1="312.8268388455676" y1="11.39824345541424" x2="312.7494188455677" y2="11.687143455414253"/>
    <line x1="330.6491388455676" y1="-26.423454522090825" x2="364.6491488455675" y2="-26.42345452209068"/>
    <line x1="327.89465371835286" y1="-24.561460063910204" x2="327.7646117629136" y2="-24.193601233865916"/>
    <line x1="329.51113330374824" y1="-26.17793964930557" x2="329.16276322523936" y2="-26.00224298623048"/>
    <line x1="366.1355244658958" y1="-26.002242986230357" x2="366.45876672618186" y2="-25.783735617518946"/>
    <line x1="316.8213184573302" y1="27.155083843651603" x2="316.8787788455676" y2="27.20859345541429"/>
    <line x1="317.0044188455676" y1="25.451883455414322" x2="316.8787788455674" y2="25.545943455414193"/>
    <line x1="318.0560888455676" y1="27.377863455414328" x2="318.14912384556743" y2="27.32989273932304"/>
    <line x1="317.04913384556755" y1="27.32989273932304" x2="317.1421688455677" y2="27.377863455414374"/>
    <line x1="317.1421688455677" y1="27.377863455414374" x2="317.28922884556755" y2="27.432713455414167"/>
    <line x1="317.3397979389507" y1="25.308269488642626" x2="317.31443217396327" y2="25.31474354746925"/>
    <line x1="316.8213184573302" y1="25.59946306717699" x2="316.7678088455677" y2="25.656913455414294"/>
    <line x1="317.28922884556755" y1="27.432713455414167" x2="317.31443048414525" y2="27.439782205073897"/>
    <line x1="317.31443048414525" y1="27.439782205073897" x2="317.44258884556757" y2="27.46606345541433"/>
    <line x1="318.19383884556765" y1="27.302643455414344" x2="318.31947884556763" y2="27.208593455414317"/>
    <line x1="317.49456882054324" y1="25.2822441401596" x2="317.46853989769744" y2="25.285042469407017"/>
    <line x1="317.4425849381665" y1="25.288459419338412" x2="317.4167186423892" y2="25.292493054652617"/>
    <line x1="316.59852884556756" y1="25.920303455414267" x2="316.54368884556754" y2="26.067363455414224"/>
    <line x1="317.46853989769744" y1="25.285042469407017" x2="317.4425849381665" y2="25.288459419338412"/>
    <line x1="316.53662009590795" y1="26.661971816836584" x2="316.5436888455676" y2="26.6871734554144"/>
    <line x1="317.75567884556733" y1="27.46606345541424" x2="317.8838272069898" y2="27.439782205073897"/>
    <line x1="317.8838272069898" y1="27.439782205073897" x2="317.9090288455676" y2="27.432713455414234"/>
    <line x1="317.28922765623213" y1="25.32181940480444" x2="317.0491338455676" y2="25.42465417150555"/>
    <line x1="318.4304588455676" y1="27.097613455414283" x2="318.52450884556765" y2="26.971973455414286"/>
    <line x1="316.6465095616588" y1="26.927268455414243" x2="316.67374884556756" y2="26.971973455414286"/>
    <line x1="318.55174812947627" y1="26.927268455414243" x2="318.5997288455674" y2="26.834223455414193"/>
    <line x1="318.66163759522715" y1="26.661971816836584" x2="318.6879288455675" y2="26.533813455414222"/>
    <line x1="318.69912884556743" y1="26.377273455414233" x2="318.6879288455676" y2="26.220723455414355"/>
    <line x1="324.0178588455675" y1="16.36670345541419" x2="323.8080488455676" y2="16.249843455414236"/>
    <line x1="316.8787788455676" y1="27.20859345541429" x2="317.0044188455675" y2="27.302643455414298"/>
    <line x1="317.36531058446513" y1="25.302400895119213" x2="317.3397979389507" y2="25.308269488642626"/>
    <line x1="316.54368884556754" y1="26.067363455414224" x2="316.53662009590795" y2="26.092575093991996"/>
    <line x1="317.5991288455675" y1="27.477263455414185" x2="317.75567884556733" y2="27.46606345541424"/>
    <line x1="317.0044188455675" y1="27.302643455414298" x2="317.04913384556755" y2="27.32989273932304"/>
    <line x1="316.5103288455677" y1="26.53381345541429" x2="316.53662009590795" y2="26.661971816836584"/>
    <line x1="318.14912384556743" y1="27.32989273932304" x2="318.19383884556765" y2="27.302643455414344"/>
    <line x1="318.31947884556763" y1="27.208593455414317" x2="318.3769392338049" y2="27.155083843651603"/>
    <line x1="317.0491338455676" y1="25.42465417150555" x2="317.0044188455676" y2="25.451883455414322"/>
    <line x1="316.6465095616588" y1="25.827278455414362" x2="316.59852884556756" y2="25.920303455414267"/>
    <line x1="318.5997288455674" y1="26.834223455414193" x2="318.65456884556755" y2="26.68717345541433"/>
    <line x1="318.6879288455676" y1="26.220723455414355" x2="318.66163759522715" y2="26.092575093992007"/>
    <line x1="317.5467895533159" y1="25.278509332143585" x2="317.52065696437336" y2="25.280066016521314"/>
    <line x1="317.31443217396327" y1="25.31474354746925" x2="317.28922765623213" y2="25.32181940480444"/>
    <line x1="316.7678088455677" y1="25.656913455414294" x2="316.6737488455678" y2="25.78255345541433"/>
    <line x1="316.59852884556767" y1="26.834223455414353" x2="316.6465095616588" y2="26.927268455414243"/>
    <line x1="323.3606488455676" y1="16.07652345541428" x2="323.1268788455675" y2="16.021533455414275"/>
    <line x1="322.8890288455675" y1="15.988363455414277" x2="322.6491388455677" y2="15.977263455414334"/>
    <line x1="318.52450884556765" y1="26.971973455414286" x2="318.55174812947627" y2="26.927268455414243"/>
    <line x1="317.3909556605867" y1="25.297141090768555" x2="317.36531058446513" y2="25.302400895119213"/>
    <line x1="316.5103288455675" y1="26.220723455414287" x2="316.4991288455675" y2="26.3772734554143"/>
    <line x1="317.44258884556757" y1="27.46606345541433" x2="317.5991288455675" y2="27.477263455414185"/>
    <line x1="316.4991288455675" y1="26.3772734554143" x2="316.5103288455677" y2="26.53381345541429"/>
    <line x1="317.9090288455676" y1="27.432713455414234" x2="318.0560888455676" y2="27.377863455414328"/>
    <line x1="316.67374884556756" y1="26.971973455414286" x2="316.7678088455676" y2="27.097613455414283"/>
    <line x1="317.4167186423892" y1="25.292493054652617" x2="317.3909556605867" y2="25.297141090768555"/>
    <line x1="316.53662009590795" y1="26.092575093991996" x2="316.5103288455675" y2="26.220723455414287"/>
    <line x1="318.65456884556755" y1="26.68717345541433" x2="318.66163759522715" y2="26.661971816836584"/>
    <line x1="322.6491388455677" y1="15.977263455414334" x2="322.4092388455675" y2="15.988363455414287"/>
    <line x1="318.6879288455675" y1="26.533813455414222" x2="318.69912884556743" y2="26.377273455414233"/>
    <line x1="318.3769392338049" y1="27.155083843651603" x2="318.4304588455676" y2="27.097613455414283"/>
    <line x1="323.1268788455675" y1="16.021533455414275" x2="322.8890288455675" y2="15.988363455414277"/>
    <line x1="316.8787788455674" y1="25.545943455414193" x2="316.8213184573302" y2="25.59946306717699"/>
    <line x1="322.4092388455675" y1="15.988363455414287" x2="322.17137884556774" y2="16.021533455414364"/>
    <line x1="323.8080488455676" y1="16.249843455414236" x2="323.5883588455676" y2="16.152833455414278"/>
    <line x1="323.5883588455676" y1="16.152833455414278" x2="323.3606488455676" y2="16.07652345541428"/>
    <line x1="316.7678088455676" y1="27.097613455414283" x2="316.8213184573302" y2="27.155083843651603"/>
    <line x1="316.5436888455676" y1="26.6871734554144" x2="316.59852884556767" y2="26.834223455414353"/>
    <line x1="316.6737488455678" y1="25.78255345541433" x2="316.6465095616588" y2="25.827278455414362"/>
    <line x1="317.52065696437336" y1="25.280066016521314" x2="317.49456882054324" y2="25.2822441401596"/>
    <line x1="324.72397884556756" y1="20.14411345541427" x2="324.85969884556766" y2="19.94598345541428"/>
    <line x1="317.14216884556754" y1="33.97786345541423" x2="317.2147152974059" y2="34.00791326286084"/>
    <line x1="324.97655884556764" y1="19.736183455414338" x2="325.0735588455676" y2="19.51649345541428"/>
    <line x1="322.8890288455675" y1="21.166173455414224" x2="323.1268788455676" y2="21.13300345541422"/>
    <line x1="323.1268788455676" y1="21.13300345541422" x2="323.36064884556765" y2="21.078013455414283"/>
    <line x1="320.06021884556753" y1="18.337363455414252" x2="320.0491288455676" y2="18.577263455414286"/>
    <line x1="323.36064884556765" y1="21.078013455414283" x2="323.58835884556765" y2="21.001693455414355"/>
    <line x1="323.58835884556765" y1="21.001693455414355" x2="323.80804884556767" y2="20.90469345541428"/>
    <line x1="325.14987884556774" y1="17.865743455414307" x2="325.0735588455675" y2="17.63803345541422"/>
    <line x1="324.9765588455675" y1="17.41834345541422" x2="324.8596988455676" y2="17.2085434554143"/>
    <line x1="320.1483888455676" y1="17.86574345541424" x2="320.09339884556766" y2="18.09952345541429"/>
    <line x1="320.14838884556764" y1="19.2887934554143" x2="320.2246988455677" y2="19.516493455414327"/>
    <line x1="320.8975288455676" y1="20.498693455414305" x2="321.0822788455675" y2="20.652113455414284"/>
    <line x1="324.2159788455675" y1="20.652113455414305" x2="324.40073884556756" y2="20.498693455414305"/>
    <line x1="324.40073884556756" y1="20.498693455414305" x2="324.5705488455675" y2="20.32887345541424"/>
    <line x1="325.2048588455675" y1="19.055013455414304" x2="325.2380388455675" y2="18.817163455414192"/>
    <line x1="325.24912884556744" y1="18.57726345541423" x2="325.23803884556753" y2="18.337363455414252"/>
    <line x1="320.43855884556757" y1="17.20854345541429" x2="320.3216988455676" y2="17.418343455414213"/>
    <line x1="320.57427884556773" y1="17.01041345541433" x2="320.43855884556757" y2="17.20854345541429"/>
    <line x1="321.08227884556777" y1="16.502423455414355" x2="320.8975288455676" y2="16.655843455414235"/>
    <line x1="321.49021884556754" y1="20.904693455414233" x2="321.7098988455675" y2="21.001693455414298"/>
    <line x1="320.72770884556763" y1="16.82565345541435" x2="320.57427884556773" y2="17.01041345541433"/>
    <line x1="317.2147152974059" y1="34.00791326286084" x2="317.28922064233126" y2="34.0327110889645"/>
    <line x1="320.8975288455676" y1="16.655843455414235" x2="320.72770884556763" y2="16.82565345541435"/>
    <line x1="320.3216988455676" y1="17.418343455414213" x2="320.2246988455675" y2="17.63803345541429"/>
    <line x1="322.40923884556753" y1="21.166173455414246" x2="322.64913884556745" y2="21.177263455414167"/>
    <line x1="320.2246988455677" y1="19.516493455414327" x2="320.3216988455674" y2="19.73618345541426"/>
    <line x1="324.0178588455677" y1="20.787833455414365" x2="324.2159788455675" y2="20.652113455414305"/>
    <line x1="322.64913884556745" y1="21.177263455414167" x2="322.8890288455675" y2="21.166173455414224"/>
    <line x1="320.72770884556763" y1="20.328873455414307" x2="320.8975288455676" y2="20.498693455414305"/>
    <line x1="324.85969884556766" y1="19.94598345541428" x2="324.97655884556764" y2="19.736183455414338"/>
    <line x1="325.0735588455676" y1="19.51649345541428" x2="325.1498788455674" y2="19.288793455414265"/>
    <line x1="320.0933988455675" y1="19.055013455414247" x2="320.14838884556764" y2="19.2887934554143"/>
    <line x1="325.23803884556753" y1="18.337363455414252" x2="325.2048588455675" y2="18.099523455414314"/>
    <line x1="321.7098988455675" y1="16.15283345541424" x2="321.49021884556754" y2="16.24984345541433"/>
    <line x1="321.49021884556754" y1="16.24984345541433" x2="321.28040884556776" y2="16.366703455414356"/>
    <line x1="320.0491288455676" y1="18.577263455414286" x2="320.0602188455675" y2="18.817163455414214"/>
    <line x1="324.8596988455676" y1="17.2085434554143" x2="324.7239788455675" y2="17.010413455414273"/>
    <line x1="324.7239788455675" y1="17.010413455414273" x2="324.57054884556754" y2="16.825653455414223"/>
    <line x1="321.93760884556747" y1="16.076523455414197" x2="321.7098988455675" y2="16.15283345541424"/>
    <line x1="321.2804088455677" y1="20.78783345541432" x2="321.49021884556754" y2="20.904693455414233"/>
    <line x1="324.2159788455676" y1="16.50242345541424" x2="324.0178588455675" y2="16.36670345541419"/>
    <line x1="325.2380388455675" y1="18.817163455414192" x2="325.24912884556744" y2="18.57726345541423"/>
    <line x1="322.17137884556774" y1="16.021533455414364" x2="321.93760884556747" y2="16.076523455414197"/>
    <line x1="320.4385588455676" y1="19.945983455414304" x2="320.57427884556756" y2="20.144113455414285"/>
    <line x1="323.80804884556767" y1="20.90469345541428" x2="324.0178588455677" y2="20.787833455414365"/>
    <line x1="320.57427884556756" y1="20.144113455414285" x2="320.72770884556763" y2="20.328873455414307"/>
    <line x1="324.5705488455675" y1="20.32887345541424" x2="324.72397884556756" y2="20.14411345541427"/>
    <line x1="321.7098988455675" y1="21.001693455414298" x2="321.93760884556747" y2="21.078013455414226"/>
    <line x1="320.3216988455674" y1="19.73618345541426" x2="320.4385588455676" y2="19.945983455414304"/>
    <line x1="325.2048588455675" y1="18.099523455414314" x2="325.14987884556774" y2="17.865743455414307"/>
    <line x1="316.87877884556747" y1="33.80859345541423" x2="317.0044188455677" y2="33.90264345541438"/>
    <line x1="317.0044188455677" y1="33.90264345541438" x2="317.14216884556754" y2="33.97786345541423"/>
    <line x1="325.0735588455675" y1="17.63803345541422" x2="324.9765588455675" y2="17.41834345541422"/>
    <line x1="321.28040884556776" y1="16.366703455414356" x2="321.08227884556777" y2="16.502423455414355"/>
    <line x1="320.2246988455675" y1="17.63803345541429" x2="320.1483888455676" y2="17.86574345541424"/>
    <line x1="320.09339884556766" y1="18.09952345541429" x2="320.06021884556753" y2="18.337363455414252"/>
    <line x1="325.1498788455674" y1="19.288793455414265" x2="325.2048588455675" y2="19.055013455414304"/>
    <line x1="324.57054884556754" y1="16.825653455414223" x2="324.40073884556745" y2="16.655843455414235"/>
    <line x1="324.40073884556745" y1="16.655843455414235" x2="324.2159788455676" y2="16.50242345541424"/>
    <line x1="321.93760884556747" y1="21.078013455414226" x2="322.17137884556763" y2="21.133003455414286"/>
    <line x1="321.0822788455675" y1="20.652113455414284" x2="321.2804088455677" y2="20.78783345541432"/>
    <line x1="320.0602188455675" y1="18.817163455414214" x2="320.0933988455675" y2="19.055013455414247"/>
    <line x1="322.17137884556763" y1="21.133003455414286" x2="322.40923884556753" y2="21.166173455414246"/>
    <line x1="318.52450884556754" y1="32.38256345541426" x2="318.43045884556744" y2="32.256923455414196"/>
    <line x1="317.36530521629226" y1="34.052130569057816" x2="317.4425813078081" y2="34.06607274542851"/>
    <line x1="318.59972884556765" y1="33.43422345541438" x2="318.65456884556755" y2="33.28717345541432"/>
    <line x1="318.0560888455676" y1="31.976673455414304" x2="317.90902884556766" y2="31.921823455414287"/>
    <line x1="318.6991288455676" y1="32.97726345541427" x2="318.6879288455676" y2="32.82072345541425"/>
    <line x1="318.3194788455675" y1="32.145943455414226" x2="318.19383884556737" y2="32.051893455414174"/>
    <line x1="318.4304588455676" y1="33.697613455414334" x2="318.5245088455676" y2="33.5719734554143"/>
    <line x1="317.8329524748429" y1="34.052130569057766" x2="317.90903704880384" y2="34.03271108896445"/>
    <line x1="317.75567638332706" y1="34.06607274542849" x2="317.8329524748429" y2="34.052130569057766"/>
    <line x1="317.67760255746765" y1="34.0744665715876" x2="317.75567638332706" y2="34.06607274542849"/>
    <line x1="317.90903704880384" y1="34.03271108896445" x2="317.9835423937292" y2="34.0079132628608"/>
    <line x1="318.6545688455676" y1="32.66736345541426" x2="318.5997288455676" y2="32.52031345541426"/>
    <line x1="318.05608884556756" y1="33.97786345541416" x2="318.19383884556754" y2="33.902643455414285"/>
    <line x1="318.43045884556744" y1="32.256923455414196" x2="318.3194788455675" y2="32.145943455414226"/>
    <line x1="318.19383884556737" y1="32.051893455414174" x2="318.0560888455676" y2="31.976673455414304"/>
    <line x1="317.90902884556766" y1="31.921823455414287" x2="317.7556788455676" y2="31.88846345541428"/>
    <line x1="318.5245088455676" y1="33.5719734554143" x2="318.59972884556765" y2="33.43422345541438"/>
    <line x1="317.28922064233126" y1="34.0327110889645" x2="317.36530521629226" y2="34.052130569057816"/>
    <line x1="318.6879288455676" y1="32.82072345541425" x2="318.6545688455676" y2="32.66736345541426"/>
    <line x1="317.5991288455676" y1="34.077269274307895" x2="317.67760255746765" y2="34.0744665715876"/>
    <line x1="318.19383884556754" y1="33.902643455414285" x2="318.3194788455676" y2="33.80859345541428"/>
    <line x1="317.7556788455676" y1="31.88846345541428" x2="317.59912884556746" y2="31.87727345541429"/>
    <line x1="317.5206551336675" y1="34.0744665715876" x2="317.5991288455676" y2="34.077269274307895"/>
    <line x1="318.6879288455676" y1="33.13381345541433" x2="318.6991288455676" y2="32.97726345541427"/>
    <line x1="317.4425813078081" y1="34.06607274542851" x2="317.5206551336675" y2="34.0744665715876"/>
    <line x1="318.3194788455676" y1="33.80859345541428" x2="318.4304588455676" y2="33.697613455414334"/>
    <line x1="317.9835423937292" y1="34.0079132628608" x2="318.05608884556756" y2="33.97786345541416"/>
    <line x1="318.65456884556755" y1="33.28717345541432" x2="318.6879288455676" y2="33.13381345541433"/>
    <line x1="318.5997288455676" y1="32.52031345541426" x2="318.52450884556754" y2="32.38256345541426"/>
    <line x1="353.9831331482374" y1="7.54810713010014" x2="353.75994731043085" y2="5.852842384678633"/>
    <line x1="350.2041632999592" y1="-8.842074409117535" x2="350.40860834222485" y2="-7.289160138502319"/>
    <line x1="377.64914884556754" y1="42.1772634554142" x2="377.6491488455676" y2="35.177263455414284"/>
    <line x1="350.40860834222485" y1="-7.289160138502319" x2="351.00801087725256" y2="-5.842074409117495"/>
    <line x1="357.7570775705742" y1="-14.63762936685197" x2="356.2041632999591" y2="-14.842074409117588"/>
    <line x1="377.6491488455676" y1="35.177263455414284" x2="374.54914884556763" y2="35.17726345541426"/>
    <line x1="333.84031301178373" y1="-5.842074409117455" x2="334.79382474737116" y2="-4.599433721998131"/>
    <line x1="351.00801087725256" y1="-5.842074409117495" x2="351.9615226128399" y2="-4.599433721998205"/>
    <line x1="374.54914884556763" y1="35.17726345541426" x2="374.54914884556746" y2="42.1772634554142"/>
    <line x1="333.24091047675597" y1="-7.28916013850242" x2="333.84031301178373" y2="-5.842074409117455"/>
    <line x1="347.4331331482374" y1="14.09810713010014" x2="347.64914384556755" y2="14.069668782291044"/>
    <line x1="361.9997182576936" y1="-7.289160138502386" x2="362.20416329995925" y2="-8.842074409117478"/>
    <line x1="341.76066675344936" y1="10.82310713010014" x2="342.80158373146554" y2="12.179656546872028"/>
    <line x1="362.20416329995925" y1="-8.842074409117478" x2="361.99971825769376" y2="-10.394988679732634"/>
    <line x1="360.44680398707845" y1="-13.08471509623678" x2="359.2041632999593" y2="-14.038226831824144"/>
    <line x1="356.2041632999591" y1="-14.842074409117588" x2="354.65124902934417" y2="-14.637629366851884"/>
    <line x1="354.65124902934417" y1="-14.637629366851884" x2="353.20416329995925" y2="-14.038226831824119"/>
    <line x1="359.2041632999593" y1="-14.038226831824144" x2="357.7570775705742" y2="-14.63762936685197"/>
    <line x1="347.64914384556755" y1="1.026545477909249" x2="347.4331331482374" y2="0.9981071301001414"/>
    <line x1="344.1581331482374" y1="1.875640735312066" x2="342.80158373146554" y2="2.916557713328253"/>
    <line x1="341.106318986044" y1="9.243371875521655" x2="341.76066675344936" y2="10.82310713010014"/>
    <line x1="351.96152261283993" y1="-13.08471509623681" x2="351.0080108772526" y2="-11.842074409117421"/>
    <line x1="345.73786840281593" y1="1.2212929679067452" x2="344.1581331482374" y2="1.875640735312066"/>
    <line x1="352.0646825650093" y1="2.916557713328253" x2="350.70813314823744" y2="1.875640735312066"/>
    <line x1="351.0080108772526" y1="-11.842074409117421" x2="350.40860834222485" y2="-10.394988679732592"/>
    <line x1="342.80158373146554" y1="12.179656546872028" x2="344.1581331482374" y2="13.220573524888215"/>
    <line x1="350.40860834222485" y1="-10.394988679732592" x2="350.2041632999592" y2="-8.842074409117535"/>
    <line x1="333.0364654344905" y1="-8.84207440911746" x2="333.24091047675597" y2="-7.28916013850242"/>
    <line x1="333.24091047675597" y1="-10.394988679732654" x2="333.0364654344905" y2="-8.84207440911746"/>
    <line x1="345.73786840281593" y1="13.874921292293541" x2="347.4331331482374" y2="14.09810713010014"/>
    <line x1="334.79382474737116" y1="-4.599433721998131" x2="336.0364654344903" y2="-3.6459219864108654"/>
    <line x1="349.1283978936589" y1="1.2212929679067452" x2="347.64914384556755" y2="1.026545477909249"/>
    <line x1="350.70813314823744" y1="1.875640735312066" x2="349.1283978936589" y2="1.2212929679067452"/>
    <line x1="353.75994731043085" y1="5.852842384678633" x2="353.1055995430255" y2="4.273107130100141"/>
    <line x1="352.0646825650093" y1="12.179656546872033" x2="353.1055995430255" y2="10.823107130100146"/>
    <line x1="353.1055995430255" y1="10.823107130100146" x2="353.75994731043085" y2="9.24337187552166"/>
    <line x1="353.1055995430255" y1="4.273107130100141" x2="352.0646825650093" y2="2.916557713328253"/>
    <line x1="353.2041632999593" y1="-3.645921986410809" x2="354.6512490293441" y2="-3.0465194513830904"/>
    <line x1="349.1283978936589" y1="13.874921292293541" x2="350.3727300400373" y2="13.359502041166792"/>
    <line x1="336.03646543449037" y1="-14.03822683182411" x2="334.793824747371" y2="-13.084715096236785"/>
    <line x1="333.84031301178373" y1="-11.842074409117496" x2="333.24091047675597" y2="-10.394988679732654"/>
    <line x1="350.7081331482374" y1="13.220573524888222" x2="352.0646825650093" y2="12.179656546872033"/>
    <line x1="336.0364654344903" y1="-3.6459219864108654" x2="337.4835511638752" y2="-3.0465194513831073"/>
    <line x1="350.3727300400373" y1="13.359502041166792" x2="350.7081331482374" y2="13.220573524888222"/>
    <line x1="347.4331331482374" y1="0.9981071301001414" x2="345.73786840281593" y2="1.2212929679067452"/>
    <line x1="361.99971825769376" y1="-10.394988679732634" x2="361.4003157226658" y2="-11.842074409117517"/>
    <line x1="342.80158373146554" y1="2.916557713328253" x2="341.76066675344936" y2="4.273107130100141"/>
    <line x1="361.4003157226658" y1="-11.842074409117517" x2="360.44680398707845" y2="-13.08471509623678"/>
    <line x1="334.793824747371" y1="-13.084715096236785" x2="333.84031301178373" y2="-11.842074409117496"/>
    <line x1="351.9615226128399" y1="-4.599433721998205" x2="353.2041632999593" y2="-3.645921986410809"/>
    <line x1="347.64914384556755" y1="14.069668782291044" x2="349.1283978936589" y2="13.874921292293541"/>
    <line x1="344.4935362564375" y1="13.359502041166792" x2="345.73786840281593" y2="13.874921292293541"/>
    <line x1="353.75994731043085" y1="9.24337187552166" x2="353.9831331482374" y2="7.54810713010014"/>
    <line x1="354.6512490293441" y1="-3.0465194513830904" x2="356.20416329995913" y2="-2.8420744091175902"/>
    <line x1="356.20416329995913" y1="-2.8420744091175902" x2="357.7570775705744" y2="-3.0465194513830736"/>
    <line x1="341.76066675344936" y1="4.273107130100141" x2="341.106318986044" y2="5.8528423846786275"/>
    <line x1="357.7570775705744" y1="-3.0465194513830736" x2="359.20416329995925" y2="-3.6459219864108143"/>
    <line x1="359.20416329995925" y1="-3.6459219864108143" x2="360.44680398707857" y2="-4.599433721998148"/>
    <line x1="344.1581331482374" y1="13.220573524888215" x2="344.4935362564375" y2="13.359502041166792"/>
    <line x1="360.44680398707857" y1="-4.599433721998148" x2="361.40031572266565" y2="-5.842074409117613"/>
    <line x1="340.88313314823745" y1="7.54810713010014" x2="341.106318986044" y2="9.243371875521655"/>
    <line x1="341.106318986044" y1="5.8528423846786275" x2="340.88313314823745" y2="7.54810713010014"/>
    <line x1="353.20416329995925" y1="-14.038226831824119" x2="351.96152261283993" y2="-13.08471509623681"/>
    <line x1="361.40031572266565" y1="-5.842074409117613" x2="361.9997182576936" y2="-7.289160138502386"/>
    <line x1="373.48954884556764" y1="55.076733455414306" x2="373.2122488455676" y2="55.02158345541428"/>
    <line x1="369.0602488455674" y1="58.859713455414195" x2="369.0934488455677" y2="59.140433455414346"/>
    <line x1="369.14854884556763" y1="59.41767345541425" x2="369.2253488455678" y2="59.68972345541431"/>
    <line x1="374.28344884556753" y1="55.36964345541424" x2="374.0267488455677" y2="55.25130345541429"/>
    <line x1="370.3111488455676" y1="55.83980345541424" x2="370.1035488455676" y2="56.0316834554143"/>
    <line x1="369.0934488455676" y1="58.014103455414315" x2="369.0602488455675" y2="58.294813455414214"/>
    <line x1="376.1496488455676" y1="59.417673455414295" x2="376.20484884556765" y2="59.14043345541423"/>
    <line x1="369.3231488455676" y1="59.954923455414274" x2="369.44154884556735" y2="60.21163345541427"/>
    <line x1="369.5796488455675" y1="60.4582634554143" x2="369.7366488455675" y2="60.69329345541425"/>
    <line x1="369.7366488455675" y1="60.69329345541425" x2="369.91164884556736" y2="60.91528345541423"/>
    <line x1="369.7366488455676" y1="56.461243455414305" x2="369.5796488455677" y2="56.69627345541428"/>
    <line x1="369.2253488455678" y1="59.68972345541431" x2="369.3231488455676" y2="59.954923455414274"/>
    <line x1="369.91164884556736" y1="60.91528345541423" x2="370.1035488455675" y2="61.12285345541429"/>
    <line x1="369.44154884556747" y1="56.94290345541417" x2="369.32314884556763" y2="57.19960345541427"/>
    <line x1="370.7681488455676" y1="55.50776345541425" x2="370.53314884556755" y2="55.66480345541424"/>
    <line x1="369.0602488455675" y1="58.294813455414214" x2="369.0491488455674" y2="58.577263455414126"/>
    <line x1="370.1035488455675" y1="61.12285345541429" x2="370.3111488455675" y2="61.31472345541424"/>
    <line x1="374.9871488455675" y1="55.83980345541426" x2="374.7651488455675" y2="55.664803455414216"/>
    <line x1="376.20484884556765" y1="59.14043345541423" x2="376.2380488455676" y2="58.859713455414216"/>
    <line x1="376.23804884556756" y1="58.29481345541419" x2="376.2048488455675" y2="58.01410345541414"/>
    <line x1="369.1485488455676" y1="57.73686345541432" x2="369.0934488455676" y2="58.014103455414315"/>
    <line x1="372.08594884556754" y1="55.0215834554143" x2="371.8087488455677" y2="55.07673345541428"/>
    <line x1="375.85674884556755" y1="56.942903455414324" x2="375.7186488455676" y2="56.696273455414186"/>
    <line x1="375.3866488455675" y1="56.2392534554142" x2="375.19474884556746" y2="56.03168345541424"/>
    <line x1="376.0729488455676" y1="57.464803455414255" x2="375.9751488455676" y2="57.19960345541427"/>
    <line x1="376.1496488455675" y1="57.73686345541423" x2="376.0729488455676" y2="57.464803455414255"/>
    <line x1="372.6491488455675" y1="54.97726345541427" x2="372.3666488455675" y2="54.98836345541425"/>
    <line x1="371.5366488455675" y1="55.15346345541418" x2="371.27144884556776" y2="55.25130345541433"/>
    <line x1="369.44154884556735" y1="60.21163345541427" x2="369.5796488455675" y2="60.4582634554143"/>
    <line x1="369.0934488455677" y1="59.140433455414346" x2="369.14854884556763" y2="59.41767345541425"/>
    <line x1="370.3111488455675" y1="61.31472345541424" x2="370.5331488455676" y2="61.48972345541431"/>
    <line x1="370.7681488455675" y1="61.646773455414234" x2="371.0147488455677" y2="61.784893455414355"/>
    <line x1="372.3666488455675" y1="54.98836345541425" x2="372.08594884556754" y2="55.0215834554143"/>
    <line x1="376.2048488455675" y1="58.01410345541414" x2="376.1496488455675" y2="57.73686345541423"/>
    <line x1="373.2122488455676" y1="55.02158345541428" x2="372.9315488455676" y2="54.988363455414316"/>
    <line x1="372.9315488455676" y1="54.988363455414316" x2="372.6491488455675" y2="54.97726345541427"/>
    <line x1="370.53314884556755" y1="55.66480345541424" x2="370.3111488455676" y2="55.83980345541424"/>
    <line x1="375.7186488455676" y1="56.696273455414186" x2="375.5615488455674" y2="56.46124345541421"/>
    <line x1="370.5331488455676" y1="61.48972345541431" x2="370.7681488455675" y2="61.646773455414234"/>
    <line x1="369.5796488455677" y1="56.69627345541428" x2="369.44154884556747" y2="56.94290345541417"/>
    <line x1="374.54914884556746" y1="42.1772634554142" x2="377.64914884556754" y2="42.1772634554142"/>
    <line x1="371.2714488455675" y1="61.90323345541429" x2="371.5366488455675" y2="62.00107345541421"/>
    <line x1="371.0147488455677" y1="61.784893455414355" x2="371.2714488455675" y2="61.90323345541429"/>
    <line x1="371.27144884556776" y1="55.25130345541433" x2="371.01474884556757" y2="55.36964345541426"/>
    <line x1="369.0491488455674" y1="58.577263455414126" x2="369.0602488455674" y2="58.859713455414195"/>
    <line x1="371.5366488455675" y1="62.00107345541421" x2="371.8087488455675" y2="62.077793455414266"/>
    <line x1="371.8087488455675" y1="62.077793455414266" x2="372.08594884556766" y2="62.132943455414264"/>
    <line x1="372.08594884556766" y1="62.132943455414264" x2="372.3666488455677" y2="62.16616345541441"/>
    <line x1="372.3666488455677" y1="62.16616345541441" x2="372.6491488455675" y2="62.17726345541421"/>
    <line x1="374.5301488455675" y1="55.50776345541421" x2="374.28344884556753" y2="55.36964345541424"/>
    <line x1="373.7616488455676" y1="55.153463455414226" x2="373.48954884556764" y2="55.076733455414306"/>
    <line x1="369.2253488455676" y1="57.46480345541433" x2="369.1485488455676" y2="57.73686345541432"/>
    <line x1="374.0267488455677" y1="55.25130345541429" x2="373.7616488455676" y2="55.153463455414226"/>
    <line x1="371.01474884556757" y1="55.36964345541426" x2="370.7681488455676" y2="55.50776345541425"/>
    <line x1="374.7651488455675" y1="55.664803455414216" x2="374.5301488455675" y2="55.50776345541421"/>
    <line x1="375.19474884556746" y1="56.03168345541424" x2="374.9871488455675" y2="55.83980345541426"/>
    <line x1="369.9116488455676" y1="56.23925345541416" x2="369.7366488455676" y2="56.461243455414305"/>
    <line x1="369.32314884556763" y1="57.19960345541427" x2="369.2253488455676" y2="57.46480345541433"/>
    <line x1="375.9751488455676" y1="57.19960345541427" x2="375.85674884556755" y2="56.942903455414324"/>
    <line x1="376.24914884556756" y1="58.57726345541426" x2="376.23804884556756" y2="58.29481345541419"/>
    <line x1="376.2380488455676" y1="58.859713455414216" x2="376.24914884556756" y2="58.57726345541426"/>
    <line x1="375.5615488455674" y1="56.46124345541421" x2="375.3866488455675" y2="56.2392534554142"/>
    <line x1="371.8087488455677" y1="55.07673345541428" x2="371.5366488455675" y2="55.15346345541418"/>
    <line x1="370.1035488455676" y1="56.0316834554143" x2="369.9116488455676" y2="56.23925345541416"/>
    <line x1="378.8279288455676" y1="26.220723455414355" x2="378.80163759522713" y2="26.092575093992007"/>
    <line x1="378.5704588455677" y1="25.656913455414337" x2="378.5169392338048" y2="25.59946306717699"/>
    <line x1="378.2891238455675" y1="25.42465417150555" x2="378.19608884556754" y2="25.37667345541427"/>
    <line x1="378.19608884556754" y1="25.37667345541427" x2="378.0490288455675" y2="25.321823455414233"/>
    <line x1="377.7129517863255" y1="25.277574968705466" x2="377.6867895533158" y2="25.278509332143585"/>
    <line x1="377.6867895533158" y1="25.278509332143585" x2="377.66065696437335" y2="25.280066016521314"/>
    <line x1="377.4292276562321" y1="25.32181940480444" x2="377.1891338455676" y2="25.42465417150555"/>
    <line x1="377.1891338455676" y1="25.42465417150555" x2="377.1444188455676" y2="25.451883455414322"/>
    <line x1="377.1444188455676" y1="25.451883455414322" x2="377.0187788455674" y2="25.545943455414193"/>
    <line x1="377.66065696437335" y1="25.280066016521314" x2="377.63456882054317" y2="25.2822441401596"/>
    <line x1="377.0187788455674" y1="25.545943455414193" x2="376.9613184573302" y2="25.59946306717699"/>
    <line x1="376.9613184573302" y1="25.59946306717699" x2="376.9078088455677" y2="25.656913455414294"/>
    <line x1="378.6645088455677" y1="25.782553455414355" x2="378.5704588455677" y2="25.656913455414337"/>
    <line x1="377.63456882054317" y1="25.2822441401596" x2="377.6085398976974" y2="25.285042469407017"/>
    <line x1="377.6085398976974" y1="25.285042469407017" x2="377.58258493816646" y2="25.288459419338412"/>
    <line x1="377.5567186423891" y1="25.292493054652617" x2="377.53095566058664" y2="25.297141090768555"/>
    <line x1="378.7397288455676" y1="25.920303455414246" x2="378.69174812947625" y2="25.827278455414362"/>
    <line x1="375.97514884556756" y1="59.95492345541437" x2="376.0729488455675" y2="59.689723455414224"/>
    <line x1="373.21224884556756" y1="62.13294345541431" x2="373.48954884556764" y2="62.077793455414266"/>
    <line x1="374.0267488455674" y1="61.90323345541422" x2="374.2834488455676" y2="61.78489345541424"/>
    <line x1="378.2891238455674" y1="27.32989273932304" x2="378.33383884556764" y2="27.302643455414344"/>
    <line x1="378.4594788455676" y1="27.208593455414317" x2="378.5169392338048" y2="27.155083843651603"/>
    <line x1="375.1947488455677" y1="61.122853455414315" x2="375.3866488455676" y2="60.91528345541423"/>
    <line x1="375.7186488455677" y1="60.4582634554143" x2="375.8567488455674" y2="60.21163345541414"/>
    <line x1="374.7651488455676" y1="61.489723455414286" x2="374.98714884556756" y2="61.31472345541428"/>
    <line x1="374.5301488455676" y1="61.64677345541435" x2="374.7651488455676" y2="61.489723455414286"/>
    <line x1="378.33383884556764" y1="27.302643455414344" x2="378.4594788455676" y2="27.208593455414317"/>
    <line x1="378.5169392338048" y1="27.155083843651603" x2="378.5704588455676" y2="27.097613455414283"/>
    <line x1="378.5704588455676" y1="27.097613455414283" x2="378.6645088455676" y2="26.971973455414286"/>
    <line x1="378.69174812947625" y1="26.927268455414243" x2="378.7397288455674" y2="26.834223455414193"/>
    <line x1="378.7397288455674" y1="26.834223455414193" x2="378.79456884556754" y2="26.68717345541433"/>
    <line x1="378.79456884556754" y1="26.68717345541433" x2="378.80163759522713" y2="26.661971816836584"/>
    <line x1="378.8391288455674" y1="26.377273455414233" x2="378.8279288455676" y2="26.220723455414355"/>
    <line x1="374.2834488455676" y1="61.78489345541424" x2="374.5301488455676" y2="61.64677345541435"/>
    <line x1="372.9315488455675" y1="62.16616345541432" x2="373.21224884556756" y2="62.13294345541431"/>
    <line x1="378.04902884556753" y1="27.432713455414234" x2="378.1960888455676" y2="27.377863455414328"/>
    <line x1="378.80163759522713" y1="26.092575093992007" x2="378.7945688455675" y2="26.06736345541425"/>
    <line x1="375.3866488455676" y1="60.91528345541423" x2="375.56154884556753" y2="60.69329345541427"/>
    <line x1="378.45947884556756" y1="25.54594345541424" x2="378.3338388455677" y2="25.451883455414297"/>
    <line x1="378.5169392338048" y1="25.59946306717699" x2="378.45947884556756" y2="25.54594345541424"/>
    <line x1="372.6491488455675" y1="62.17726345541421" x2="372.9315488455675" y2="62.16616345541432"/>
    <line x1="378.0238272069898" y1="27.439782205073897" x2="378.04902884556753" y2="27.432713455414234"/>
    <line x1="378.0490288455675" y1="25.321823455414233" x2="378.0238272069898" y2="25.314764705754698"/>
    <line x1="378.0238272069898" y1="25.314764705754698" x2="377.8956788455675" y2="25.288463455414313"/>
    <line x1="377.73912884556745" y1="25.27726345541419" x2="377.7129517863255" y2="25.277574968705466"/>
    <line x1="377.58258493816646" y1="25.288459419338412" x2="377.5567186423891" y2="25.292493054652617"/>
    <line x1="378.80163759522713" y1="26.661971816836584" x2="378.8279288455675" y2="26.533813455414222"/>
    <line x1="378.69174812947625" y1="25.827278455414362" x2="378.6645088455677" y2="25.782553455414355"/>
    <line x1="378.3338388455677" y1="25.451883455414297" x2="378.2891238455675" y2="25.42465417150555"/>
    <line x1="377.53095566058664" y1="25.297141090768555" x2="377.5053105844651" y2="25.302400895119213"/>
    <line x1="378.1960888455676" y1="27.377863455414328" x2="378.2891238455674" y2="27.32989273932304"/>
    <line x1="377.5053105844651" y1="25.302400895119213" x2="377.4797979389507" y2="25.308269488642626"/>
    <line x1="377.4797979389507" y1="25.308269488642626" x2="377.45443217396326" y2="25.31474354746925"/>
    <line x1="377.45443217396326" y1="25.31474354746925" x2="377.4292276562321" y2="25.32181940480444"/>
    <line x1="376.0729488455675" y1="59.689723455414224" x2="376.1496488455676" y2="59.417673455414295"/>
    <line x1="375.8567488455674" y1="60.21163345541414" x2="375.97514884556756" y2="59.95492345541437"/>
    <line x1="378.8279288455675" y1="26.533813455414222" x2="378.8391288455674" y2="26.377273455414233"/>
    <line x1="377.8956788455675" y1="25.288463455414313" x2="377.73912884556745" y2="25.27726345541419"/>
    <line x1="374.98714884556756" y1="61.31472345541428" x2="375.1947488455677" y2="61.122853455414315"/>
    <line x1="373.7616488455676" y1="62.001073455414236" x2="374.0267488455674" y2="61.90323345541422"/>
    <line x1="373.48954884556764" y1="62.077793455414266" x2="373.7616488455676" y2="62.001073455414236"/>
    <line x1="375.56154884556753" y1="60.69329345541427" x2="375.7186488455677" y2="60.4582634554143"/>
    <line x1="378.6645088455676" y1="26.971973455414286" x2="378.69174812947625" y2="26.927268455414243"/>
    <line x1="378.7945688455675" y1="26.06736345541425" x2="378.7397288455676" y2="25.920303455414246"/>
    <line x1="377.18913384556754" y1="27.32989273932304" x2="377.28216884556764" y2="27.377863455414374"/>
    <line x1="378.1960888455676" y1="31.976673455414304" x2="378.04902884556765" y2="31.921823455414287"/>
    <line x1="376.7385288455676" y1="33.43422345541436" x2="376.8137488455677" y2="33.571973455414366"/>
    <line x1="376.9613184573302" y1="27.155083843651603" x2="377.01877884556757" y2="27.20859345541429"/>
    <line x1="377.4292288455676" y1="31.921823455414334" x2="377.2821688455676" y2="31.976673455414236"/>
    <line x1="376.63912884556754" y1="32.97726345541424" x2="376.65032884556746" y2="33.133813455414256"/>
    <line x1="376.90780884556744" y1="33.6976134554142" x2="377.01877884556745" y2="33.80859345541423"/>
    <line x1="377.1444188455677" y1="33.90264345541438" x2="377.2821688455675" y2="33.97786345541423"/>
    <line x1="377.3547152974059" y1="34.00791326286084" x2="377.42922064233125" y2="34.0327110889645"/>
    <line x1="377.42922064233125" y1="34.0327110889645" x2="377.50530521629224" y2="34.052130569057816"/>
    <line x1="377.0187788455675" y1="32.14594345541432" x2="376.9078088455674" y2="32.25692345541422"/>
    <line x1="377.01877884556745" y1="33.80859345541423" x2="377.1444188455677" y2="33.90264345541438"/>
    <line x1="377.6606551336675" y1="34.0744665715876" x2="377.73912884556756" y2="34.077269274307895"/>
    <line x1="376.8137488455675" y1="32.38256345541426" x2="376.73852884556743" y2="32.52031345541421"/>
    <line x1="377.73912884556745" y1="31.87727345541429" x2="377.5825888455675" y2="31.88846345541419"/>
    <line x1="376.65032884556746" y1="33.133813455414256" x2="376.6836888455675" y2="33.2871734554143"/>
    <line x1="378.6645088455676" y1="33.5719734554143" x2="378.73972884556764" y2="33.43422345541438"/>
    <line x1="376.78650956165876" y1="26.927268455414243" x2="376.8137488455675" y2="26.971973455414286"/>
    <line x1="376.6503288455675" y1="32.820723455414274" x2="376.63912884556754" y2="32.97726345541424"/>
    <line x1="376.78650956165876" y1="25.827278455414362" x2="376.73852884556754" y2="25.920303455414267"/>
    <line x1="377.2821688455675" y1="33.97786345541423" x2="377.3547152974059" y2="34.00791326286084"/>
    <line x1="377.7391288455675" y1="27.477263455414185" x2="377.8956788455673" y2="27.46606345541424"/>
    <line x1="376.6391288455675" y1="26.3772734554143" x2="376.6503288455677" y2="26.53381345541429"/>
    <line x1="376.68368884556753" y1="26.6871734554144" x2="376.73852884556766" y2="26.834223455414353"/>
    <line x1="376.6766200959079" y1="26.092575093991996" x2="376.6503288455675" y2="26.220723455414287"/>
    <line x1="376.68368884556753" y1="26.067363455414224" x2="376.6766200959079" y2="26.092575093991996"/>
    <line x1="377.45443048414523" y1="27.439782205073897" x2="377.58258884556756" y2="27.46606345541433"/>
    <line x1="377.50530521629224" y1="34.052130569057816" x2="377.582581307808" y2="34.06607274542851"/>
    <line x1="377.73912884556756" y1="34.077269274307895" x2="377.8176025574676" y2="34.0744665715876"/>
    <line x1="376.8137488455677" y1="33.571973455414366" x2="376.90780884556744" y2="33.6976134554142"/>
    <line x1="377.8176025574676" y1="34.0744665715876" x2="377.895676383327" y2="34.06607274542849"/>
    <line x1="378.0490370488038" y1="34.03271108896445" x2="378.12354239372917" y2="34.0079132628608"/>
    <line x1="377.58258884556756" y1="27.46606345541433" x2="377.7391288455675" y2="27.477263455414185"/>
    <line x1="376.73852884556754" y1="25.920303455414267" x2="376.68368884556753" y2="26.067363455414224"/>
    <line x1="377.28216884556764" y1="27.377863455414374" x2="377.42922884556754" y2="27.432713455414167"/>
    <line x1="377.42922884556754" y1="27.432713455414167" x2="377.45443048414523" y2="27.439782205073897"/>
    <line x1="377.5825888455675" y1="31.88846345541419" x2="377.4292288455676" y2="31.921823455414334"/>
    <line x1="376.6503288455677" y1="26.53381345541429" x2="376.6766200959079" y2="26.661971816836584"/>
    <line x1="378.19608884556754" y1="33.97786345541416" x2="378.3338388455675" y2="33.902643455414285"/>
    <line x1="376.9078088455674" y1="32.25692345541422" x2="376.8137488455675" y2="32.38256345541426"/>
    <line x1="377.582581307808" y1="34.06607274542851" x2="377.6606551336675" y2="34.0744665715876"/>
    <line x1="377.9729524748428" y1="34.052130569057766" x2="378.0490370488038" y2="34.03271108896445"/>
    <line x1="378.12354239372917" y1="34.0079132628608" x2="378.19608884556754" y2="33.97786345541416"/>
    <line x1="378.04902884556765" y1="31.921823455414287" x2="377.89567884556755" y2="31.88846345541428"/>
    <line x1="376.6836888455675" y1="33.2871734554143" x2="376.7385288455676" y2="33.43422345541436"/>
    <line x1="377.895676383327" y1="34.06607274542849" x2="377.9729524748428" y2="34.052130569057766"/>
    <line x1="378.3338388455675" y1="33.902643455414285" x2="378.45947884556756" y2="33.80859345541428"/>
    <line x1="378.45947884556756" y1="33.80859345541428" x2="378.5704588455676" y2="33.697613455414334"/>
    <line x1="378.5704588455676" y1="33.697613455414334" x2="378.6645088455676" y2="33.5719734554143"/>
    <line x1="376.90780884556756" y1="27.097613455414283" x2="376.9613184573302" y2="27.155083843651603"/>
    <line x1="377.1444188455675" y1="27.302643455414298" x2="377.18913384556754" y2="27.32989273932304"/>
    <line x1="376.68368884556753" y1="32.6673634554143" x2="376.6503288455675" y2="32.820723455414274"/>
    <line x1="377.01877884556757" y1="27.20859345541429" x2="377.1444188455675" y2="27.302643455414298"/>
    <line x1="377.89567884556755" y1="31.88846345541428" x2="377.73912884556745" y2="31.87727345541429"/>
    <line x1="376.8137488455675" y1="26.971973455414286" x2="376.90780884556756" y2="27.097613455414283"/>
    <line x1="376.73852884556766" y1="26.834223455414353" x2="376.78650956165876" y2="26.927268455414243"/>
    <line x1="377.14441884556754" y1="32.051893455414174" x2="377.0187788455675" y2="32.14594345541432"/>
    <line x1="376.73852884556743" y1="32.52031345541421" x2="376.68368884556753" y2="32.6673634554143"/>
    <line x1="376.6503288455675" y1="26.220723455414287" x2="376.6391288455675" y2="26.3772734554143"/>
    <line x1="376.8137488455677" y1="25.78255345541433" x2="376.78650956165876" y2="25.827278455414362"/>
    <line x1="376.9078088455677" y1="25.656913455414294" x2="376.8137488455677" y2="25.78255345541433"/>
    <line x1="376.6766200959079" y1="26.661971816836584" x2="376.68368884556753" y2="26.6871734554144"/>
    <line x1="377.8956788455673" y1="27.46606345541424" x2="378.0238272069898" y2="27.439782205073897"/>
    <line x1="377.2821688455676" y1="31.976673455414236" x2="377.14441884556754" y2="32.051893455414174"/>
    <line x1="325.0384504985281" y1="8.556718358278921" x2="325.4205262369322" y2="8.475550784445131"/>
    <line x1="378.8279288455676" y1="33.13381345541433" x2="378.8391288455676" y2="32.97726345541427"/>
    <line x1="378.8279288455676" y1="32.82072345541425" x2="378.7945688455676" y2="32.66736345541426"/>
    <line x1="326.75530965540514" y1="7.6946142652517455" x2="327.01327472328927" y2="7.401315665407523"/>
    <line x1="327.40696448896216" y1="6.728417730264962" x2="327.53624617459855" y2="6.3598308467787525"/>
    <line x1="327.61741374843234" y1="5.977755108374714" x2="327.6491388455676" y2="5.5884434554142475"/>
    <line x1="325.78911312041834" y1="8.346269098808756" x2="326.13817896330005" y2="8.170989087819585"/>
    <line x1="378.73972884556764" y1="33.43422345541438" x2="378.7945688455675" y2="33.28717345541432"/>
    <line x1="324.6491388455677" y1="8.588443455414248" x2="325.0384504985281" y2="8.556718358278921"/>
    <line x1="327.231684477973" y1="7.077483573146628" x2="327.40696448896216" y2="6.728417730264962"/>
    <line x1="378.7397288455676" y1="32.52031345541426" x2="378.6645088455675" y2="32.38256345541426"/>
    <line x1="326.13817896330005" y1="8.170989087819585" x2="326.46201105556094" y2="7.952579333135898"/>
    <line x1="327.53624617459855" y1="6.3598308467787525" x2="327.61741374843234" y2="5.977755108374714"/>
    <line x1="378.33383884556736" y1="32.051893455414174" x2="378.1960888455676" y2="31.976673455414304"/>
    <line x1="378.5704588455674" y1="32.256923455414196" x2="378.4594788455675" y2="32.145943455414226"/>
    <line x1="378.8391288455676" y1="32.97726345541427" x2="378.8279288455676" y2="32.82072345541425"/>
    <line x1="325.4205262369322" y1="8.475550784445131" x2="325.78911312041834" y2="8.346269098808756"/>
    <line x1="327.01327472328927" y1="7.401315665407523" x2="327.231684477973" y2="7.077483573146628"/>
    <line x1="378.7945688455676" y1="32.66736345541426" x2="378.7397288455676" y2="32.52031345541426"/>
    <line x1="378.7945688455675" y1="33.28717345541432" x2="378.8279288455676" y2="33.13381345541433"/>
    <line x1="378.4594788455675" y1="32.145943455414226" x2="378.33383884556736" y2="32.051893455414174"/>
    <line x1="378.6645088455675" y1="32.38256345541426" x2="378.5704588455674" y2="32.256923455414196"/>
    <line x1="326.46201105556094" y1="7.952579333135898" x2="326.75530965540514" y2="7.6946142652517455"/>
   </g>
  </g>
 </svg>